<?xml version="1.0" encoding="UTF-8" standalone="no"?><svg xmlns="http://www.w3.org/2000/svg" xmlns:xlink="http://www.w3.org/1999/xlink" contentScriptType="application/ecmascript" contentStyleType="text/css" height="464px" preserveAspectRatio="none" style="width:841px;height:464px;background:#FFFFFF;" version="1.1" viewBox="0 0 841 464" width="841px" zoomAndPan="magnify"><defs><filter height="300%" id="fog559v3v80ju" width="300%" x="-1" y="-1"><feGaussianBlur result="blurOut" stdDeviation="2.0"/><feColorMatrix in="blurOut" result="blurOut2" type="matrix" values="0 0 0 0 0 0 0 0 0 0 0 0 0 0 0 0 0 0 .4 0"/><feOffset dx="4.0" dy="4.0" in="blurOut2" result="blurOut3"/><feBlend in="SourceGraphic" in2="blurOut3" mode="normal"/></filter></defs><g><!--MD5=[db66fe8cbe2cdf0454290dbf82c3f59c]
entity Developer--><ellipse cx="315" cy="268.5" fill="#FEFECE" filter="url(#fog559v3v80ju)" rx="8" ry="8" style="stroke:#A80036;stroke-width:1.5;"/><path d="M315,276.5 L315,303.5 M302,284.5 L328,284.5 M315,303.5 L302,318.5 M315,303.5 L328,318.5 " fill="none" filter="url(#fog559v3v80ju)" style="stroke:#A80036;stroke-width:1.5;"/><text fill="#000000" font-family="sans-serif" font-size="14" lengthAdjust="spacing" textLength="65" x="282.5" y="338.5332">Developer</text><!--MD5=[24ef4de227140dcfe4624f4e610270ac]
entity Deployment Model--><rect fill="#FEFECE" filter="url(#fog559v3v80ju)" height="47.6094" style="stroke:#A80036;stroke-width:1.5;" width="157" x="90.5" y="276.5"/><rect fill="#FEFECE" height="10" style="stroke:#A80036;stroke-width:1.5;" width="15" x="227.5" y="281.5"/><rect fill="#FEFECE" height="2" style="stroke:#A80036;stroke-width:1.5;" width="4" x="225.5" y="283.5"/><rect fill="#FEFECE" height="2" style="stroke:#A80036;stroke-width:1.5;" width="4" x="225.5" y="287.5"/><text fill="#000000" font-family="sans-serif" font-size="14" lengthAdjust="spacing" textLength="117" x="105.5" y="311.0332">Deployment Model</text><!--MD5=[64c03c548cbc3894026dbc6427ee82f9]
entity FIDL Definitions--><rect fill="#FEFECE" filter="url(#fog559v3v80ju)" height="47.6094" style="stroke:#A80036;stroke-width:1.5;" width="140" x="7" y="403"/><rect fill="#FEFECE" height="10" style="stroke:#A80036;stroke-width:1.5;" width="15" x="127" y="408"/><rect fill="#FEFECE" height="2" style="stroke:#A80036;stroke-width:1.5;" width="4" x="125" y="410"/><rect fill="#FEFECE" height="2" style="stroke:#A80036;stroke-width:1.5;" width="4" x="125" y="414"/><text fill="#000000" font-family="sans-serif" font-size="14" lengthAdjust="spacing" textLength="100" x="22" y="437.5332">FIDL Definitions</text><!--MD5=[29e69d39e0e38d34264e63c8b16d9f4f]
entity Deployment Specs--><rect fill="#FEFECE" filter="url(#fog559v3v80ju)" height="47.6094" style="stroke:#A80036;stroke-width:1.5;" width="158" x="182" y="403"/><rect fill="#FEFECE" height="10" style="stroke:#A80036;stroke-width:1.5;" width="15" x="320" y="408"/><rect fill="#FEFECE" height="2" style="stroke:#A80036;stroke-width:1.5;" width="4" x="318" y="410"/><rect fill="#FEFECE" height="2" style="stroke:#A80036;stroke-width:1.5;" width="4" x="318" y="414"/><text fill="#000000" font-family="sans-serif" font-size="14" lengthAdjust="spacing" textLength="118" x="197" y="437.5332">Deployment Specs</text><!--MD5=[58bfa305881261047382522a2c1475d7]
entity Java app host--><rect fill="#FEFECE" filter="url(#fog559v3v80ju)" height="47.6094" style="stroke:#A80036;stroke-width:1.5;" width="128" x="211" y="7"/><rect fill="#FEFECE" height="10" style="stroke:#A80036;stroke-width:1.5;" width="15" x="319" y="12"/><rect fill="#FEFECE" height="2" style="stroke:#A80036;stroke-width:1.5;" width="4" x="317" y="14"/><rect fill="#FEFECE" height="2" style="stroke:#A80036;stroke-width:1.5;" width="4" x="317" y="18"/><text fill="#000000" font-family="sans-serif" font-size="14" lengthAdjust="spacing" textLength="88" x="226" y="41.5332">Java app host</text><!--MD5=[aa34238d1cb2e7bbded5e3531894862e]
entity Xtend/Java generators--><rect fill="#FEFECE" filter="url(#fog559v3v80ju)" height="47.6094" style="stroke:#A80036;stroke-width:1.5;" width="182" x="414" y="133"/><rect fill="#FEFECE" height="10" style="stroke:#A80036;stroke-width:1.5;" width="15" x="576" y="138"/><rect fill="#FEFECE" height="2" style="stroke:#A80036;stroke-width:1.5;" width="4" x="574" y="140"/><rect fill="#FEFECE" height="2" style="stroke:#A80036;stroke-width:1.5;" width="4" x="574" y="144"/><text fill="#000000" font-family="sans-serif" font-size="14" lengthAdjust="spacing" textLength="142" x="429" y="167.5332">Xtend/Java generators</text><!--MD5=[a58c0f8824fa5d40612b30261ae4ec17]
entity source files--><rect fill="#FEFECE" filter="url(#fog559v3v80ju)" height="47.6094" style="stroke:#A80036;stroke-width:1.5;" width="112" x="715" y="276.5"/><rect fill="#FEFECE" height="10" style="stroke:#A80036;stroke-width:1.5;" width="15" x="807" y="281.5"/><rect fill="#FEFECE" height="2" style="stroke:#A80036;stroke-width:1.5;" width="4" x="805" y="283.5"/><rect fill="#FEFECE" height="2" style="stroke:#A80036;stroke-width:1.5;" width="4" x="805" y="287.5"/><text fill="#000000" font-family="sans-serif" font-size="14" lengthAdjust="spacing" textLength="72" x="730" y="311.0332">source files</text><!--MD5=[4d29110d3f4dc5138e57be52ed104057]
entity User app--><rect fill="#FEFECE" filter="url(#fog559v3v80ju)" height="47.6094" style="stroke:#A80036;stroke-width:1.5;" width="97" x="507.5" y="276.5"/><rect fill="#FEFECE" height="10" style="stroke:#A80036;stroke-width:1.5;" width="15" x="584.5" y="281.5"/><rect fill="#FEFECE" height="2" style="stroke:#A80036;stroke-width:1.5;" width="4" x="582.5" y="283.5"/><rect fill="#FEFECE" height="2" style="stroke:#A80036;stroke-width:1.5;" width="4" x="582.5" y="287.5"/><text fill="#000000" font-family="sans-serif" font-size="14" lengthAdjust="spacing" textLength="57" x="522.5" y="311.0332">User app</text><!--MD5=[d6e3b69cdcb04d4db47024be4344b379]
link Deployment Model to FIDL Definitions--><path d="M151.91,324.63 C136.35,345.68 113.38,376.77 96.98,398.96 " fill="none" id="Deployment Model-to-FIDL Definitions" style="stroke:#A80036;stroke-width:1.0;"/><polygon fill="#A80036" points="94,403,102.5614,398.1314,96.9679,398.9762,96.1232,393.3827,94,403" style="stroke:#A80036;stroke-width:1.0;"/><!--MD5=[9c9a191825187bfbd640f1a619145b8f]
link Deployment Model to Deployment Specs--><path d="M186.09,324.63 C201.65,345.68 224.62,376.77 241.02,398.96 " fill="none" id="Deployment Model-to-Deployment Specs" style="stroke:#A80036;stroke-width:1.0;"/><polygon fill="#A80036" points="244,403,241.8768,393.3827,241.0321,398.9762,235.4386,398.1314,244,403" style="stroke:#A80036;stroke-width:1.0;"/><!--MD5=[a75130a8397ca91b5d8d49410c530e27]
link Java app host to Deployment Model--><path d="M265.78,55.27 C246.31,104.4 201.08,218.55 180.08,271.54 " fill="none" id="Java app host-to-Deployment Model" style="stroke:#A80036;stroke-width:1.0;"/><polygon fill="#A80036" points="178.12,276.47,185.1582,269.5806,179.9646,271.8227,177.7225,266.6292,178.12,276.47" style="stroke:#A80036;stroke-width:1.0;"/><text fill="#000000" font-family="sans-serif" font-size="13" lengthAdjust="spacing" textLength="65" x="235" y="162.4951">(1) «parse»</text><!--MD5=[c3671d31120b213a878971c72d714e1a]
link Java app host to Xtend/Java generators--><path d="M317.72,55.03 C357.46,76.45 416.55,108.31 457.69,130.5 " fill="none" id="Java app host-to-Xtend/Java generators" style="stroke:#A80036;stroke-width:1.0;"/><polygon fill="#A80036" points="462.12,132.88,456.0952,125.0889,457.7186,130.5078,452.2996,132.1312,462.12,132.88" style="stroke:#A80036;stroke-width:1.0;"/><text fill="#000000" font-family="sans-serif" font-size="13" lengthAdjust="spacing" textLength="147" x="404" y="99.4951">(2) «feeds model data to»</text><!--MD5=[16567a834d2d418b723903439a36f300]
link Xtend/Java generators to source files--><path d="M548.33,181.05 C596.34,206.59 673.55,247.66 723.26,274.11 " fill="none" id="Xtend/Java generators-to-source files" style="stroke:#A80036;stroke-width:1.0;"/><polygon fill="#A80036" points="727.69,276.46,721.6351,268.6922,723.2794,274.1048,717.8668,275.7492,727.69,276.46" style="stroke:#A80036;stroke-width:1.0;"/><text fill="#000000" font-family="sans-serif" font-size="13" lengthAdjust="spacing" textLength="79" x="639" y="225.4951">(3) «produce»</text><!--MD5=[76bfa750e45e68f88029e26e2b0d83fa]
link User app to source files--><path d="M604.52,300.5 C635.55,300.5 676.09,300.5 709.39,300.5 " fill="none" id="User app-to-source files" style="stroke:#A80036;stroke-width:1.0;"/><polygon fill="#A80036" points="714.67,300.5,705.67,296.5,709.67,300.5,705.67,304.5,714.67,300.5" style="stroke:#A80036;stroke-width:1.0;"/><text fill="#000000" font-family="sans-serif" font-size="13" lengthAdjust="spacing" textLength="74" x="622.75" y="293.9951">(4) «include»</text><!--MD5=[5fc8771426903f8557eabf21ba75c737]
link Developer to source files--><path d="M347.71,259.46 C361.43,245.44 378.59,231.42 397.5,224 C435.36,209.15 540.57,216.28 580.5,224 C630.27,233.62 683.53,256.16 721.05,274.3 " fill="none" id="Developer-to-source files" style="stroke:#A80036;stroke-width:1.0;"/><polygon fill="#A80036" points="725.54,276.49,719.192,268.9598,721.0425,274.3055,715.6968,276.1559,725.54,276.49" style="stroke:#A80036;stroke-width:1.0;"/><text fill="#000000" font-family="sans-serif" font-size="13" lengthAdjust="spacing" textLength="181" x="398.5" y="225.4951">(5) «fill-in generated templates»</text><!--MD5=[eeb248af599a26b88534c2ad396a076f]
link Developer to User app--><path d="M347.5,300.5 C387.17,300.5 454.82,300.5 502.27,300.5 " fill="none" id="Developer-to-User app" style="stroke:#A80036;stroke-width:1.0;"/><polygon fill="#A80036" points="507.38,300.5,498.38,296.5,502.38,300.5,498.38,304.5,507.38,300.5" style="stroke:#A80036;stroke-width:1.0;"/><text fill="#000000" font-family="sans-serif" font-size="13" lengthAdjust="spacing" textLength="123" x="366" y="293.9951">(6) «build and enjoy!»</text><!--MD5=[43f56559c66fc64eca877b7539ea696e]
@startuml

actor Developer

[Deployment Model] - -> [FIDL Definitions]
[Deployment Model] - -> [Deployment Specs]
[Java app host] - - -> [Deployment Model]: (1) <<parse>>
[Java app host] - -> [Xtend/Java generators]: (2) <<feeds model data to>>
[Xtend/Java generators] - -> [source files]: (3) <<produce>>
[User app] -> [source files]: (4) <<include>>
Developer -> [source files]: (5) <<fill-in generated templates>>
Developer -> [User app]: (6) <<build and enjoy!>>

@enduml

PlantUML version 1.2021.9(Sun Jul 25 13:13:56 EEST 2021)
(GPL source distribution)
Java Runtime: OpenJDK Runtime Environment
JVM: OpenJDK 64-Bit Server VM
Default Encoding: Cp1252
Language: en
Country: US
--></g></svg>