<?xml version="1.0" encoding="UTF-8" standalone="no"?><svg xmlns="http://www.w3.org/2000/svg" xmlns:xlink="http://www.w3.org/1999/xlink" contentScriptType="application/ecmascript" contentStyleType="text/css" height="866px" preserveAspectRatio="none" style="width:846px;height:866px;background:#FFFFFF;" version="1.1" viewBox="0 0 846 866" width="846px" zoomAndPan="magnify"><defs><filter height="300%" id="f1n32q027uin2g" width="300%" x="-1" y="-1"><feGaussianBlur result="blurOut" stdDeviation="2.0"/><feColorMatrix in="blurOut" result="blurOut2" type="matrix" values="0 0 0 0 0 0 0 0 0 0 0 0 0 0 0 0 0 0 .4 0"/><feOffset dx="4.0" dy="4.0" in="blurOut2" result="blurOut3"/><feBlend in="SourceGraphic" in2="blurOut3" mode="normal"/></filter></defs><g><text fill="#000000" font-family="sans-serif" font-size="18" font-weight="bold" lengthAdjust="spacing" textLength="128" x="352.75" y="18.6855">Files Structure</text><!--MD5=[d78befca05509975ee226b4a38f12f68]
cluster FIDL sources--><polygon fill="#FFFFFF" filter="url(#f1n32q027uin2g)" points="232.5,28.6406,330.5,28.6406,337.5,52.25,570.5,52.25,570.5,237.6406,232.5,237.6406,232.5,28.6406" style="stroke:#000000;stroke-width:1.5;"/><line style="stroke:#000000;stroke-width:1.5;" x1="232.5" x2="337.5" y1="52.25" y2="52.25"/><text fill="#000000" font-family="sans-serif" font-size="14" font-weight="bold" lengthAdjust="spacing" textLength="92" x="236.5" y="45.1738">FIDL sources</text><!--MD5=[a8e11655af69e28b3d06b7c2b1f198a0]
cluster Binders--><polygon fill="#FFFFFF" filter="url(#f1n32q027uin2g)" points="191.5,759.6406,252.5,759.6406,259.5,783.25,829.5,783.25,829.5,859.6406,191.5,859.6406,191.5,759.6406" style="stroke:#000000;stroke-width:1.5;"/><line style="stroke:#000000;stroke-width:1.5;" x1="191.5" x2="259.5" y1="783.25" y2="783.25"/><text fill="#000000" font-family="sans-serif" font-size="14" font-weight="bold" lengthAdjust="spacing" textLength="55" x="195.5" y="776.1738">Binders</text><!--MD5=[7391bb9dcc9ed3d6410fb3f2b2f2cca6]
entity interface.fidl--><rect fill="#FEFECE" filter="url(#f1n32q027uin2g)" height="47.6094" style="stroke:#A80036;stroke-width:1.5;" width="117" x="437" y="64.6406"/><rect fill="#FEFECE" height="10" style="stroke:#A80036;stroke-width:1.5;" width="15" x="534" y="69.6406"/><rect fill="#FEFECE" height="2" style="stroke:#A80036;stroke-width:1.5;" width="4" x="532" y="71.6406"/><rect fill="#FEFECE" height="2" style="stroke:#A80036;stroke-width:1.5;" width="4" x="532" y="75.6406"/><text fill="#000000" font-family="sans-serif" font-size="14" lengthAdjust="spacing" textLength="77" x="452" y="99.1738">interface.fidl</text><!--MD5=[b69723de9825a7609385c8e2a5458a2a]
entity deployment.fdepl--><rect fill="#FEFECE" filter="url(#f1n32q027uin2g)" height="47.6094" style="stroke:#A80036;stroke-width:1.5;" width="148" x="323.5" y="173.6406"/><rect fill="#FEFECE" height="10" style="stroke:#A80036;stroke-width:1.5;" width="15" x="451.5" y="178.6406"/><rect fill="#FEFECE" height="2" style="stroke:#A80036;stroke-width:1.5;" width="4" x="449.5" y="180.6406"/><rect fill="#FEFECE" height="2" style="stroke:#A80036;stroke-width:1.5;" width="4" x="449.5" y="184.6406"/><text fill="#000000" font-family="sans-serif" font-size="14" lengthAdjust="spacing" textLength="108" x="338.5" y="208.1738">deployment.fdepl</text><!--MD5=[e29f9a615305ddf3f0f3ce9a78bc20e7]
entity specification.fdepl--><rect fill="#FEFECE" filter="url(#f1n32q027uin2g)" height="47.6094" style="stroke:#A80036;stroke-width:1.5;" width="153" x="249" y="64.6406"/><rect fill="#FEFECE" height="10" style="stroke:#A80036;stroke-width:1.5;" width="15" x="382" y="69.6406"/><rect fill="#FEFECE" height="2" style="stroke:#A80036;stroke-width:1.5;" width="4" x="380" y="71.6406"/><rect fill="#FEFECE" height="2" style="stroke:#A80036;stroke-width:1.5;" width="4" x="380" y="75.6406"/><text fill="#000000" font-family="sans-serif" font-size="14" lengthAdjust="spacing" textLength="113" x="264" y="99.1738">specification.fdepl</text><!--MD5=[36de5fb4152cc532208e0161b5a047aa]
entity Gen_C.java--><rect fill="#FEFECE" filter="url(#f1n32q027uin2g)" height="47.6094" style="stroke:#A80036;stroke-width:1.5;" width="115" x="363" y="795.6406"/><rect fill="#FEFECE" height="10" style="stroke:#A80036;stroke-width:1.5;" width="15" x="458" y="800.6406"/><rect fill="#FEFECE" height="2" style="stroke:#A80036;stroke-width:1.5;" width="4" x="456" y="802.6406"/><rect fill="#FEFECE" height="2" style="stroke:#A80036;stroke-width:1.5;" width="4" x="456" y="806.6406"/><text fill="#000000" font-family="sans-serif" font-size="14" lengthAdjust="spacing" textLength="75" x="378" y="830.1738">Gen_C.java</text><!--MD5=[7b3395b0550db15f7e5e2a3c7e923228]
entity Gen_JS.java--><rect fill="#FEFECE" filter="url(#f1n32q027uin2g)" height="47.6094" style="stroke:#A80036;stroke-width:1.5;" width="120" x="207.5" y="795.6406"/><rect fill="#FEFECE" height="10" style="stroke:#A80036;stroke-width:1.5;" width="15" x="307.5" y="800.6406"/><rect fill="#FEFECE" height="2" style="stroke:#A80036;stroke-width:1.5;" width="4" x="305.5" y="802.6406"/><rect fill="#FEFECE" height="2" style="stroke:#A80036;stroke-width:1.5;" width="4" x="305.5" y="806.6406"/><text fill="#000000" font-family="sans-serif" font-size="14" lengthAdjust="spacing" textLength="80" x="222.5" y="830.1738">Gen_JS.java</text><!--MD5=[f1af79b4e45b8ab17459902ffef58884]
entity Gen_LaTex.java--><rect fill="#FEFECE" filter="url(#f1n32q027uin2g)" height="47.6094" style="stroke:#A80036;stroke-width:1.5;" width="144" x="669.5" y="795.6406"/><rect fill="#FEFECE" height="10" style="stroke:#A80036;stroke-width:1.5;" width="15" x="793.5" y="800.6406"/><rect fill="#FEFECE" height="2" style="stroke:#A80036;stroke-width:1.5;" width="4" x="791.5" y="802.6406"/><rect fill="#FEFECE" height="2" style="stroke:#A80036;stroke-width:1.5;" width="4" x="791.5" y="806.6406"/><text fill="#000000" font-family="sans-serif" font-size="14" lengthAdjust="spacing" textLength="104" x="684.5" y="830.1738">Gen_LaTex.java</text><!--MD5=[d92d9509f25f7bd7977633ebccc69969]
entity Gen_Py.java--><rect fill="#FEFECE" filter="url(#f1n32q027uin2g)" height="47.6094" style="stroke:#A80036;stroke-width:1.5;" width="121" x="513" y="795.6406"/><rect fill="#FEFECE" height="10" style="stroke:#A80036;stroke-width:1.5;" width="15" x="614" y="800.6406"/><rect fill="#FEFECE" height="2" style="stroke:#A80036;stroke-width:1.5;" width="4" x="612" y="802.6406"/><rect fill="#FEFECE" height="2" style="stroke:#A80036;stroke-width:1.5;" width="4" x="612" y="806.6406"/><text fill="#000000" font-family="sans-serif" font-size="14" lengthAdjust="spacing" textLength="81" x="528" y="830.1738">Gen_Py.java</text><path d="M87.5,75.6406 L87.5,101.9922 L213.5,101.9922 L213.5,85.6406 L203.5,75.6406 L87.5,75.6406 " fill="#FBFB77" filter="url(#f1n32q027uin2g)" style="stroke:#A80036;stroke-width:1.0;"/><path d="M203.5,75.6406 L203.5,85.6406 L213.5,85.6406 L203.5,75.6406 " fill="#FBFB77" style="stroke:#A80036;stroke-width:1.0;"/><text fill="#000000" font-family="sans-serif" font-size="13" lengthAdjust="spacing" textLength="105" x="93.5" y="94.1357">Given by the user.</text><!--MD5=[9b1109c0bb20439624a2c0dd7afa95fc]
entity macchiato.java--><rect fill="#FEFECE" filter="url(#f1n32q027uin2g)" height="47.6094" style="stroke:#A80036;stroke-width:1.5;" width="134" x="330.5" y="363.6406"/><rect fill="#FEFECE" height="10" style="stroke:#A80036;stroke-width:1.5;" width="15" x="444.5" y="368.6406"/><rect fill="#FEFECE" height="2" style="stroke:#A80036;stroke-width:1.5;" width="4" x="442.5" y="370.6406"/><rect fill="#FEFECE" height="2" style="stroke:#A80036;stroke-width:1.5;" width="4" x="442.5" y="374.6406"/><text fill="#000000" font-family="sans-serif" font-size="14" lengthAdjust="spacing" textLength="94" x="345.5" y="398.1738">macchiato.java</text><!--MD5=[2a40fb69ab068cdcd32d69de172ba29e]
entity folder src-gen-<generator>--><rect fill="#FEFECE" filter="url(#f1n32q027uin2g)" height="47.6094" style="stroke:#A80036;stroke-width:1.5;" width="211" x="7" y="489.6406"/><rect fill="#FEFECE" height="10" style="stroke:#A80036;stroke-width:1.5;" width="15" x="198" y="494.6406"/><rect fill="#FEFECE" height="2" style="stroke:#A80036;stroke-width:1.5;" width="4" x="196" y="496.6406"/><rect fill="#FEFECE" height="2" style="stroke:#A80036;stroke-width:1.5;" width="4" x="196" y="500.6406"/><text fill="#000000" font-family="sans-serif" font-size="14" lengthAdjust="spacing" textLength="171" x="22" y="524.1738">folder src-gen-&lt;generator&gt;</text><!--MD5=[672872d6633fa16318ca70ffd1066186]
entity Xtend Generators--><rect fill="#FEFECE" filter="url(#f1n32q027uin2g)" height="47.6094" style="stroke:#A80036;stroke-width:1.5;" width="152" x="450.5" y="631.6406"/><rect fill="#FEFECE" height="10" style="stroke:#A80036;stroke-width:1.5;" width="15" x="582.5" y="636.6406"/><rect fill="#FEFECE" height="2" style="stroke:#A80036;stroke-width:1.5;" width="4" x="580.5" y="638.6406"/><rect fill="#FEFECE" height="2" style="stroke:#A80036;stroke-width:1.5;" width="4" x="580.5" y="642.6406"/><text fill="#000000" font-family="sans-serif" font-size="14" lengthAdjust="spacing" textLength="112" x="465.5" y="666.1738">Xtend Generators</text><!--MD5=[3dac0de7432209692ea0e8070ffee0a1]
link interface.fidl to deployment.fdepl--><path d="M474.24,112.8606 C458.95,129.5406 438.3,152.0906 422.28,169.5906 " fill="none" id="interface.fidl-to-deployment.fdepl" style="stroke:#A80036;stroke-width:1.0;"/><polygon fill="#A80036" points="418.72,173.4706,427.746,169.5296,422.0947,169.7813,421.8431,164.13,418.72,173.4706" style="stroke:#A80036;stroke-width:1.0;"/><!--MD5=[d37babc730cd68b8b1a5a50daf4b9559]
link specification.fdepl to deployment.fdepl--><path d="M341.12,112.8606 C352.26,129.4006 367.27,151.7106 379,169.1506 " fill="none" id="specification.fdepl-to-deployment.fdepl" style="stroke:#A80036;stroke-width:1.0;"/><polygon fill="#A80036" points="381.91,173.4706,380.1999,163.7714,379.1168,169.3236,373.5646,168.2405,381.91,173.4706" style="stroke:#A80036;stroke-width:1.0;"/><!--MD5=[a9db3683c347daac803b97964e983432]
reverse link macchiato.java to Gen_C.java--><path d="M399.01,416.7906 C403.26,496.4106 415.34,722.1906 419.26,795.4106 " fill="none" id="macchiato.java-backto-Gen_C.java" style="stroke:#A80036;stroke-width:1.0;"/><polygon fill="#A80036" points="398.74,411.7606,395.2352,420.9648,399.0118,416.7532,403.2233,420.5299,398.74,411.7606" style="stroke:#A80036;stroke-width:1.0;"/><!--MD5=[f0da5a0d43ba1d3fbbfa1cb834664f8e]
reverse link macchiato.java to Gen_JS.java--><path d="M377.02,416.1706 C353.06,449.9406 314.3,509.8606 295.5,567.6406 C269.25,648.3206 266.69,750.4406 267,795.4906 " fill="none" id="macchiato.java-backto-Gen_JS.java" style="stroke:#A80036;stroke-width:1.0;"/><polygon fill="#A80036" points="380.15,411.7806,371.659,416.7708,377.2398,415.8464,378.1642,421.4272,380.15,411.7806" style="stroke:#A80036;stroke-width:1.0;"/><text fill="#000000" font-family="sans-serif" font-size="13" lengthAdjust="spacing" textLength="97" x="300.5" y="582.1357">3.Generated text</text><text fill="#000000" font-family="sans-serif" font-size="13" lengthAdjust="spacing" textLength="88" x="305" y="598.4873">into output files</text><!--MD5=[fc38f5f32959e964336bb5ae63ba7974]
reverse link macchiato.java to Gen_LaTex.java--><path d="M453.58,413.9906 C488.03,431.5906 531.36,457.6006 562.5,489.6406 C655.18,584.9906 714.02,737.9506 733.93,795.6306 " fill="none" id="macchiato.java-backto-Gen_LaTex.java" style="stroke:#A80036;stroke-width:1.0;"/><polygon fill="#A80036" points="449,411.6706,455.2319,419.2972,453.4635,413.9238,458.8369,412.1555,449,411.6706" style="stroke:#A80036;stroke-width:1.0;"/><!--MD5=[89426fcf4d2c0ea2d783c24a20abde3a]
reverse link macchiato.java to Gen_Py.java--><path d="M432.08,415.0606 C482.49,455.6706 575.08,538.5406 620.5,631.6406 C642.47,676.6806 650.09,696.3506 633.5,743.6406 C626.55,763.4706 611.9,781.9406 598.82,795.6006 " fill="none" id="macchiato.java-backto-Gen_Py.java" style="stroke:#A80036;stroke-width:1.0;"/><polygon fill="#A80036" points="427.93,411.7406,432.4473,420.4924,431.8302,414.8693,437.4532,414.2522,427.93,411.7406" style="stroke:#A80036;stroke-width:1.0;"/><!--MD5=[346dde62f1c6d82c0e16c019602381b6]
link macchiato.java to folder src-gen-<generator>--><path d="M330.36,393.5906 C260.25,400.1506 156.64,414.2506 128.5,441.6406 C115.91,453.8906 112.28,473.7706 111.58,489.3806 " fill="none" id="macchiato.java-folder src-gen-&lt;generator&gt;" style="stroke:#A80036;stroke-width:1.0;stroke-dasharray:7.0,7.0;"/><text fill="#000000" font-family="sans-serif" font-size="13" lengthAdjust="spacing" textLength="111" x="133.5" y="456.1357">4.Generated output</text><!--MD5=[8af2c7b65ac0b3e09cd6d69a631c67bc]
link deployment.fdepl to macchiato.java--><path d="M397.5,221.6906 C397.5,256.0806 397.5,320.7706 397.5,358.1006 " fill="none" id="deployment.fdepl-to-macchiato.java" style="stroke:#A80036;stroke-width:1.0;stroke-dasharray:7.0,7.0;"/><polygon fill="#A80036" points="397.5,363.4006,401.5,354.4006,397.5,358.4006,393.5,354.4006,397.5,363.4006" style="stroke:#A80036;stroke-width:1.0;"/><text fill="#000000" font-family="sans-serif" font-size="13" lengthAdjust="spacing" textLength="126" x="402.5" y="299.1357">1.Command line Input</text><!--MD5=[6f76549b80a407af5d1e639291071ca6]
link Xtend Generators to Gen_C.java--><path d="M511.31,679.8506 C492.11,709.2006 459.08,759.6806 438.59,791.0006 " fill="none" id="Xtend Generators-to-Gen_C.java" style="stroke:#A80036;stroke-width:1.0;"/><polygon fill="#A80036" points="435.66,795.4706,443.9385,790.1353,438.4005,791.2885,437.2472,785.7505,435.66,795.4706" style="stroke:#A80036;stroke-width:1.0;"/><!--MD5=[e20ee02b1105b78b9862be8f3725d6a7]
link Xtend Generators to Gen_JS.java--><path d="M475.2,679.7206 C437.96,697.3806 387.04,723.4306 345.5,751.6406 C327.95,763.5606 309.89,778.8506 295.57,791.8106 " fill="none" id="Xtend Generators-to-Gen_JS.java" style="stroke:#A80036;stroke-width:1.0;"/><polygon fill="#A80036" points="291.63,795.4006,300.9706,792.2776,295.3193,792.0259,295.571,786.3746,291.63,795.4006" style="stroke:#A80036;stroke-width:1.0;"/><!--MD5=[6c60bbc710aa7992652eb04b045110ae]
link Xtend Generators to Gen_LaTex.java--><path d="M584.92,679.7006 C602.58,687.9106 621.51,698.0506 637.5,709.6406 C669.93,733.1506 700.78,767.5306 720.33,791.3706 " fill="none" id="Xtend Generators-to-Gen_LaTex.java" style="stroke:#A80036;stroke-width:1.0;"/><polygon fill="#A80036" points="723.61,795.4006,721.0391,785.8932,720.457,791.5201,714.8302,790.938,723.61,795.4006" style="stroke:#A80036;stroke-width:1.0;"/><!--MD5=[f4c00bc13ad96f2cb1794a9c34350789]
link Xtend Generators to Gen_Py.java--><path d="M526.62,679.9806 C527.25,697.7606 529.33,722.6606 535.5,743.6406 C540.35,760.1206 548.77,777.3006 556.45,791.0506 " fill="none" id="Xtend Generators-to-Gen_Py.java" style="stroke:#A80036;stroke-width:1.0;"/><polygon fill="#A80036" points="559.03,795.5806,558.0689,785.7788,556.5631,791.2315,551.1104,789.7258,559.03,795.5806" style="stroke:#A80036;stroke-width:1.0;"/><text fill="#000000" font-family="sans-serif" font-size="13" lengthAdjust="spacing" textLength="88" x="540.5" y="724.1357">2.FIDL sources</text><text fill="#000000" font-family="sans-serif" font-size="13" lengthAdjust="spacing" textLength="47" x="561" y="740.4873">into text</text><!--MD5=[866852ca03f724bea2759027a6325433]
@startuml

title <b>Files Structure</b>

package "FIDL sources" {
    [interface.fidl] - -> [deployment.fdepl]
    [specification.fdepl] - -> [deployment.fdepl]
    [deployment.fdepl]
}
note "Given by the user." as fidl_sources_note


[macchiato.java]

package "Binders" {
    [Gen_C.java]
    [Gen_JS.java]
    [Gen_LaTex.java]
    [Gen_Py.java]
}

[macchiato.java] <- - - - [Gen_C.java]
[macchiato.java] <- - - - [Gen_JS.java] : " 3.Generated text\n into output files"
[macchiato.java] <- - - - [Gen_LaTex.java]
[macchiato.java] <- - - - [Gen_Py.java]
[macchiato.java] .- [folder src-gen-<generator>] : " 4.Generated output"

[deployment.fdepl] ...> [macchiato.java]: " 1.Command line Input"

[Xtend Generators] - -> [Gen_C.java]
[Xtend Generators] - -> [Gen_JS.java]
[Xtend Generators] - -> [Gen_LaTex.java]
[Xtend Generators] - -> [Gen_Py.java] : " 2.FIDL sources\n into text"

@enduml

PlantUML version 1.2021.12(Tue Oct 05 19:01:58 EEST 2021)
(GPL source distribution)
Java Runtime: Java(TM) SE Runtime Environment
JVM: Java HotSpot(TM) 64-Bit Server VM
Default Encoding: Cp1252
Language: en
Country: GB
--></g></svg>