<?xml version="1.0" encoding="UTF-8" standalone="no"?><svg xmlns="http://www.w3.org/2000/svg" xmlns:xlink="http://www.w3.org/1999/xlink" contentScriptType="application/ecmascript" contentStyleType="text/css" height="441px" preserveAspectRatio="none" style="width:1580px;height:441px;background:#FFFFFF;" version="1.1" viewBox="0 0 1580 441" width="1580px" zoomAndPan="magnify"><defs><filter height="300%" id="f1ovztyiq241j3" width="300%" x="-1" y="-1"><feGaussianBlur result="blurOut" stdDeviation="2.0"/><feColorMatrix in="blurOut" result="blurOut2" type="matrix" values="0 0 0 0 0 0 0 0 0 0 0 0 0 0 0 0 0 0 .4 0"/><feOffset dx="4.0" dy="4.0" in="blurOut2" result="blurOut3"/><feBlend in="SourceGraphic" in2="blurOut3" mode="normal"/></filter></defs><g><text fill="#000000" font-family="sans-serif" font-size="18" lengthAdjust="spacing" textLength="305" x="631.25" y="18.6855">Function Protocol Layer class diagram</text><!--MD5=[41ac921434fa0267b9547a1d517d374c]
class LEDClientApp--><rect codeLine="4" fill="#FEFECE" filter="url(#f1ovztyiq241j3)" height="75.6719" id="LEDClientApp" style="stroke:#A80036;stroke-width:1.5;" width="622" x="9" y="29.6406"/><ellipse cx="277.25" cy="45.6406" fill="#ADD1B2" rx="11" ry="11" style="stroke:#A80036;stroke-width:1.0;"/><path d="M280.0156,41.5156 Q280.1719,41.2969 280.3594,41.1875 Q280.5469,41.0781 280.7656,41.0781 Q281.1406,41.0781 281.375,41.3438 Q281.6094,41.5938 281.6094,42.2031 L281.6094,43.6563 Q281.6094,44.2656 281.375,44.5313 Q281.1406,44.7969 280.7656,44.7969 Q280.4219,44.7969 280.2188,44.5938 Q280.0156,44.4063 279.9063,43.8906 Q279.8594,43.5313 279.6719,43.3438 Q279.3438,42.9688 278.7344,42.75 Q278.125,42.5313 277.5,42.5313 Q276.7344,42.5313 276.0938,42.8594 Q275.4688,43.1875 274.9688,43.9375 Q274.4844,44.6875 274.4844,45.7188 L274.4844,46.8125 Q274.4844,48.0469 275.375,48.875 Q276.2656,49.6875 277.8594,49.6875 Q278.7969,49.6875 279.4531,49.4375 Q279.8438,49.2813 280.2656,48.8438 Q280.5313,48.5781 280.6719,48.5 Q280.8281,48.4219 281.0313,48.4219 Q281.3594,48.4219 281.6094,48.6875 Q281.875,48.9375 281.875,49.2813 Q281.875,49.625 281.5313,50.0313 Q281.0313,50.6094 280.2344,50.9375 Q279.1563,51.3906 277.8594,51.3906 Q276.3438,51.3906 275.1406,50.7656 Q274.1563,50.2656 273.4688,49.2031 Q272.7813,48.125 272.7813,46.8438 L272.7813,45.6875 Q272.7813,44.3594 273.3906,43.2188 Q274.0156,42.0625 275.1094,41.4531 Q276.2031,40.8281 277.4375,40.8281 Q278.1719,40.8281 278.8125,41 Q279.4688,41.1563 280.0156,41.5156 Z " fill="#000000"/><text fill="#000000" font-family="sans-serif" font-size="12" lengthAdjust="spacing" textLength="77" x="297.75" y="50.5508">LEDClientApp</text><line style="stroke:#A80036;stroke-width:1.5;" x1="10" x2="630" y1="61.6406" y2="61.6406"/><line style="stroke:#A80036;stroke-width:1.5;" x1="10" x2="630" y1="69.6406" y2="69.6406"/><polygon fill="#FFFF44" points="20,75.6406,24,79.6406,20,83.6406,16,79.6406" style="stroke:#B38D22;stroke-width:1.0;"/><text fill="#000000" font-family="sans-serif" font-size="11" lengthAdjust="spacing" textLength="596" x="29" y="85.0596">LED_setLedStateResponseHandlerImpl(RespContext_t *pRespCtx, LEDsetLedStateResponseData_t *pResponseData) : void</text><ellipse cx="20" cy="94.4766" fill="#84BE84" rx="3" ry="3" style="stroke:#038048;stroke-width:1.0;"/><text fill="#000000" font-family="sans-serif" font-size="11" lengthAdjust="spacing" textLength="132" x="29" y="98.8955">LEDClientAppInit(void): void</text><!--MD5=[a4f31d1b9140eac4098c4254b21aa1fe]
class LEDServerApp--><rect codeLine="9" fill="#FEFECE" filter="url(#f1ovztyiq241j3)" height="75.6719" id="LEDServerApp" style="stroke:#A80036;stroke-width:1.5;" width="583" x="405.5" y="351.6406"/><ellipse cx="652.75" cy="367.6406" fill="#ADD1B2" rx="11" ry="11" style="stroke:#A80036;stroke-width:1.0;"/><path d="M655.5156,363.5156 Q655.6719,363.2969 655.8594,363.1875 Q656.0469,363.0781 656.2656,363.0781 Q656.6406,363.0781 656.875,363.3438 Q657.1094,363.5938 657.1094,364.2031 L657.1094,365.6563 Q657.1094,366.2656 656.875,366.5313 Q656.6406,366.7969 656.2656,366.7969 Q655.9219,366.7969 655.7188,366.5938 Q655.5156,366.4063 655.4063,365.8906 Q655.3594,365.5313 655.1719,365.3438 Q654.8438,364.9688 654.2344,364.75 Q653.625,364.5313 653,364.5313 Q652.2344,364.5313 651.5938,364.8594 Q650.9688,365.1875 650.4688,365.9375 Q649.9844,366.6875 649.9844,367.7188 L649.9844,368.8125 Q649.9844,370.0469 650.875,370.875 Q651.7656,371.6875 653.3594,371.6875 Q654.2969,371.6875 654.9531,371.4375 Q655.3438,371.2813 655.7656,370.8438 Q656.0313,370.5781 656.1719,370.5 Q656.3281,370.4219 656.5313,370.4219 Q656.8594,370.4219 657.1094,370.6875 Q657.375,370.9375 657.375,371.2813 Q657.375,371.625 657.0313,372.0313 Q656.5313,372.6094 655.7344,372.9375 Q654.6563,373.3906 653.3594,373.3906 Q651.8438,373.3906 650.6406,372.7656 Q649.6563,372.2656 648.9688,371.2031 Q648.2813,370.125 648.2813,368.8438 L648.2813,367.6875 Q648.2813,366.3594 648.8906,365.2188 Q649.5156,364.0625 650.6094,363.4531 Q651.7031,362.8281 652.9375,362.8281 Q653.6719,362.8281 654.3125,363 Q654.9688,363.1563 655.5156,363.5156 Z " fill="#000000"/><text fill="#000000" font-family="sans-serif" font-size="12" lengthAdjust="spacing" textLength="80" x="673.25" y="372.5508">LEDServerApp</text><line style="stroke:#A80036;stroke-width:1.5;" x1="406.5" x2="987.5" y1="383.6406" y2="383.6406"/><line style="stroke:#A80036;stroke-width:1.5;" x1="406.5" x2="987.5" y1="391.6406" y2="391.6406"/><polygon fill="#FFFF44" points="416.5,397.6406,420.5,401.6406,416.5,405.6406,412.5,401.6406" style="stroke:#B38D22;stroke-width:1.0;"/><text fill="#000000" font-family="sans-serif" font-size="11" lengthAdjust="spacing" textLength="557" x="425.5" y="407.0596">LED_setLedStateRequestHandlerImpl(ReqContext_t *pReqCtx, LEDsetLedStateRequestData_t *pRequestData) : void</text><ellipse cx="416.5" cy="416.4766" fill="#84BE84" rx="3" ry="3" style="stroke:#038048;stroke-width:1.0;"/><text fill="#000000" font-family="sans-serif" font-size="11" lengthAdjust="spacing" textLength="142" x="425.5" y="420.8955">LEDServerAppInit(void) : void</text><!--MD5=[8e0f6f60fbcf1b90c7319c0d1a7f818d]
class LEDProtocolClient--><rect codeLine="14" fill="#FEFECE" filter="url(#f1ovztyiq241j3)" height="89.5078" id="LEDProtocolClient" style="stroke:#A80036;stroke-width:1.5;" width="527" x="56.5" y="183.6406"/><ellipse cx="265.25" cy="199.6406" fill="#ADD1B2" rx="11" ry="11" style="stroke:#A80036;stroke-width:1.0;"/><path d="M268.0156,195.5156 Q268.1719,195.2969 268.3594,195.1875 Q268.5469,195.0781 268.7656,195.0781 Q269.1406,195.0781 269.375,195.3438 Q269.6094,195.5938 269.6094,196.2031 L269.6094,197.6563 Q269.6094,198.2656 269.375,198.5313 Q269.1406,198.7969 268.7656,198.7969 Q268.4219,198.7969 268.2188,198.5938 Q268.0156,198.4063 267.9063,197.8906 Q267.8594,197.5313 267.6719,197.3438 Q267.3438,196.9688 266.7344,196.75 Q266.125,196.5313 265.5,196.5313 Q264.7344,196.5313 264.0938,196.8594 Q263.4688,197.1875 262.9688,197.9375 Q262.4844,198.6875 262.4844,199.7188 L262.4844,200.8125 Q262.4844,202.0469 263.375,202.875 Q264.2656,203.6875 265.8594,203.6875 Q266.7969,203.6875 267.4531,203.4375 Q267.8438,203.2813 268.2656,202.8438 Q268.5313,202.5781 268.6719,202.5 Q268.8281,202.4219 269.0313,202.4219 Q269.3594,202.4219 269.6094,202.6875 Q269.875,202.9375 269.875,203.2813 Q269.875,203.625 269.5313,204.0313 Q269.0313,204.6094 268.2344,204.9375 Q267.1563,205.3906 265.8594,205.3906 Q264.3438,205.3906 263.1406,204.7656 Q262.1563,204.2656 261.4688,203.2031 Q260.7813,202.125 260.7813,200.8438 L260.7813,199.6875 Q260.7813,198.3594 261.3906,197.2188 Q262.0156,196.0625 263.1094,195.4531 Q264.2031,194.8281 265.4375,194.8281 Q266.1719,194.8281 266.8125,195 Q267.4688,195.1563 268.0156,195.5156 Z " fill="#000000"/><text fill="#000000" font-family="sans-serif" font-size="12" lengthAdjust="spacing" textLength="101" x="285.75" y="204.5508">LEDProtocolClient</text><line style="stroke:#A80036;stroke-width:1.5;" x1="57.5" x2="582.5" y1="215.6406" y2="215.6406"/><line style="stroke:#A80036;stroke-width:1.5;" x1="57.5" x2="582.5" y1="223.6406" y2="223.6406"/><ellipse cx="67.5" cy="234.6406" fill="#84BE84" rx="3" ry="3" style="stroke:#038048;stroke-width:1.0;"/><text fill="#000000" font-family="sans-serif" font-size="11" lengthAdjust="spacing" textLength="300" x="76.5" y="239.0596">LED_registerClientApi(LED_ClientApi_t *pCliApiHandlers) : void</text><ellipse cx="67.5" cy="248.4766" fill="#84BE84" rx="3" ry="3" style="stroke:#038048;stroke-width:1.0;"/><text fill="#000000" font-family="sans-serif" font-size="11" lengthAdjust="spacing" textLength="501" x="76.5" y="252.8955">LED_setLedStateReq(ReqContext_t *ctx, uint8_t u8ledId, LedState_t newState) : ESSA_eStack_codes_t</text><ellipse cx="67.5" cy="262.3125" fill="#84BE84" rx="3" ry="3" style="stroke:#038048;stroke-width:1.0;"/><text fill="#000000" font-family="sans-serif" font-size="11" lengthAdjust="spacing" textLength="372" x="76.5" y="266.7314">LED_getClientProtocolDescriptor(void) : ESSA_pStack_FunctionProtocolInfo_t</text><!--MD5=[df90e56818ae0da2844dfd2f84811c2d]
class LEDProtocolServer--><rect codeLine="20" fill="#FEFECE" filter="url(#f1ovztyiq241j3)" height="89.5078" id="LEDProtocolServer" style="stroke:#A80036;stroke-width:1.5;" width="459" x="618.5" y="183.6406"/><ellipse cx="791.75" cy="199.6406" fill="#ADD1B2" rx="11" ry="11" style="stroke:#A80036;stroke-width:1.0;"/><path d="M794.5156,195.5156 Q794.6719,195.2969 794.8594,195.1875 Q795.0469,195.0781 795.2656,195.0781 Q795.6406,195.0781 795.875,195.3438 Q796.1094,195.5938 796.1094,196.2031 L796.1094,197.6563 Q796.1094,198.2656 795.875,198.5313 Q795.6406,198.7969 795.2656,198.7969 Q794.9219,198.7969 794.7188,198.5938 Q794.5156,198.4063 794.4063,197.8906 Q794.3594,197.5313 794.1719,197.3438 Q793.8438,196.9688 793.2344,196.75 Q792.625,196.5313 792,196.5313 Q791.2344,196.5313 790.5938,196.8594 Q789.9688,197.1875 789.4688,197.9375 Q788.9844,198.6875 788.9844,199.7188 L788.9844,200.8125 Q788.9844,202.0469 789.875,202.875 Q790.7656,203.6875 792.3594,203.6875 Q793.2969,203.6875 793.9531,203.4375 Q794.3438,203.2813 794.7656,202.8438 Q795.0313,202.5781 795.1719,202.5 Q795.3281,202.4219 795.5313,202.4219 Q795.8594,202.4219 796.1094,202.6875 Q796.375,202.9375 796.375,203.2813 Q796.375,203.625 796.0313,204.0313 Q795.5313,204.6094 794.7344,204.9375 Q793.6563,205.3906 792.3594,205.3906 Q790.8438,205.3906 789.6406,204.7656 Q788.6563,204.2656 787.9688,203.2031 Q787.2813,202.125 787.2813,200.8438 L787.2813,199.6875 Q787.2813,198.3594 787.8906,197.2188 Q788.5156,196.0625 789.6094,195.4531 Q790.7031,194.8281 791.9375,194.8281 Q792.6719,194.8281 793.3125,195 Q793.9688,195.1563 794.5156,195.5156 Z " fill="#000000"/><text fill="#000000" font-family="sans-serif" font-size="12" lengthAdjust="spacing" textLength="104" x="812.25" y="204.5508">LEDProtocolServer</text><line style="stroke:#A80036;stroke-width:1.5;" x1="619.5" x2="1076.5" y1="215.6406" y2="215.6406"/><line style="stroke:#A80036;stroke-width:1.5;" x1="619.5" x2="1076.5" y1="223.6406" y2="223.6406"/><ellipse cx="629.5" cy="234.6406" fill="#84BE84" rx="3" ry="3" style="stroke:#038048;stroke-width:1.0;"/><text fill="#000000" font-family="sans-serif" font-size="11" lengthAdjust="spacing" textLength="320" x="638.5" y="239.0596">LED_registerServerApi(LED_ServerApi_t *pSrvApiHandlers) : void</text><ellipse cx="629.5" cy="248.4766" fill="#84BE84" rx="3" ry="3" style="stroke:#038048;stroke-width:1.0;"/><text fill="#000000" font-family="sans-serif" font-size="11" lengthAdjust="spacing" textLength="433" x="638.5" y="252.8955">LED_setLedStateResp(RespContext_t *ctx, ErrorStatus_t status) : ESSA_eStack_codes_t</text><ellipse cx="629.5" cy="262.3125" fill="#84BE84" rx="3" ry="3" style="stroke:#038048;stroke-width:1.0;"/><text fill="#000000" font-family="sans-serif" font-size="11" lengthAdjust="spacing" textLength="379" x="638.5" y="266.7314">LED_getServerProtocolDescriptor(void) : ESSA_pStack_FunctionProtocolInfo_t</text><!--MD5=[2f2fc16be1c019e8647d3eb7805c1906]
class ProtocolServerCommon--><rect codeLine="26" fill="#FEFECE" filter="url(#f1ovztyiq241j3)" height="61.8359" id="ProtocolServerCommon" style="stroke:#A80036;stroke-width:1.5;" width="543" x="1023.5" y="358.6406"/><ellipse cx="1224.75" cy="374.6406" fill="#ADD1B2" rx="11" ry="11" style="stroke:#A80036;stroke-width:1.0;"/><path d="M1227.5156,370.5156 Q1227.6719,370.2969 1227.8594,370.1875 Q1228.0469,370.0781 1228.2656,370.0781 Q1228.6406,370.0781 1228.875,370.3438 Q1229.1094,370.5938 1229.1094,371.2031 L1229.1094,372.6563 Q1229.1094,373.2656 1228.875,373.5313 Q1228.6406,373.7969 1228.2656,373.7969 Q1227.9219,373.7969 1227.7188,373.5938 Q1227.5156,373.4063 1227.4063,372.8906 Q1227.3594,372.5313 1227.1719,372.3438 Q1226.8438,371.9688 1226.2344,371.75 Q1225.625,371.5313 1225,371.5313 Q1224.2344,371.5313 1223.5938,371.8594 Q1222.9688,372.1875 1222.4688,372.9375 Q1221.9844,373.6875 1221.9844,374.7188 L1221.9844,375.8125 Q1221.9844,377.0469 1222.875,377.875 Q1223.7656,378.6875 1225.3594,378.6875 Q1226.2969,378.6875 1226.9531,378.4375 Q1227.3438,378.2813 1227.7656,377.8438 Q1228.0313,377.5781 1228.1719,377.5 Q1228.3281,377.4219 1228.5313,377.4219 Q1228.8594,377.4219 1229.1094,377.6875 Q1229.375,377.9375 1229.375,378.2813 Q1229.375,378.625 1229.0313,379.0313 Q1228.5313,379.6094 1227.7344,379.9375 Q1226.6563,380.3906 1225.3594,380.3906 Q1223.8438,380.3906 1222.6406,379.7656 Q1221.6563,379.2656 1220.9688,378.2031 Q1220.2813,377.125 1220.2813,375.8438 L1220.2813,374.6875 Q1220.2813,373.3594 1220.8906,372.2188 Q1221.5156,371.0625 1222.6094,370.4531 Q1223.7031,369.8281 1224.9375,369.8281 Q1225.6719,369.8281 1226.3125,370 Q1226.9688,370.1563 1227.5156,370.5156 Z " fill="#000000"/><text fill="#000000" font-family="sans-serif" font-size="12" lengthAdjust="spacing" textLength="132" x="1245.25" y="379.5508">ProtocolServerCommon</text><line style="stroke:#A80036;stroke-width:1.5;" x1="1024.5" x2="1565.5" y1="390.6406" y2="390.6406"/><line style="stroke:#A80036;stroke-width:1.5;" x1="1024.5" x2="1565.5" y1="398.6406" y2="398.6406"/><ellipse cx="1034.5" cy="409.6406" fill="#84BE84" rx="3" ry="3" style="stroke:#038048;stroke-width:1.0;"/><text fill="#000000" font-family="sans-serif" font-size="11" lengthAdjust="spacing" textLength="517" x="1043.5" y="414.0596">ProtocolSendErrorResp(ESSATMAC_Context *pMACContext, funcIdType_t funcId) : ESSA_eStack_codes_t</text><!--MD5=[51aa99d26a9520f07772a075319ab19e]
class ESSA_Stack--><rect fill="#FEFECE" filter="url(#f1ovztyiq241j3)" height="48" id="ESSA_Stack" style="stroke:#A80036;stroke-width:1.5;" width="100" x="270" y="365.6406"/><ellipse cx="285" cy="381.6406" fill="#ADD1B2" rx="11" ry="11" style="stroke:#A80036;stroke-width:1.0;"/><path d="M287.7656,377.5156 Q287.9219,377.2969 288.1094,377.1875 Q288.2969,377.0781 288.5156,377.0781 Q288.8906,377.0781 289.125,377.3438 Q289.3594,377.5938 289.3594,378.2031 L289.3594,379.6563 Q289.3594,380.2656 289.125,380.5313 Q288.8906,380.7969 288.5156,380.7969 Q288.1719,380.7969 287.9688,380.5938 Q287.7656,380.4063 287.6563,379.8906 Q287.6094,379.5313 287.4219,379.3438 Q287.0938,378.9688 286.4844,378.75 Q285.875,378.5313 285.25,378.5313 Q284.4844,378.5313 283.8438,378.8594 Q283.2188,379.1875 282.7188,379.9375 Q282.2344,380.6875 282.2344,381.7188 L282.2344,382.8125 Q282.2344,384.0469 283.125,384.875 Q284.0156,385.6875 285.6094,385.6875 Q286.5469,385.6875 287.2031,385.4375 Q287.5938,385.2813 288.0156,384.8438 Q288.2813,384.5781 288.4219,384.5 Q288.5781,384.4219 288.7813,384.4219 Q289.1094,384.4219 289.3594,384.6875 Q289.625,384.9375 289.625,385.2813 Q289.625,385.625 289.2813,386.0313 Q288.7813,386.6094 287.9844,386.9375 Q286.9063,387.3906 285.6094,387.3906 Q284.0938,387.3906 282.8906,386.7656 Q281.9063,386.2656 281.2188,385.2031 Q280.5313,384.125 280.5313,382.8438 L280.5313,381.6875 Q280.5313,380.3594 281.1406,379.2188 Q281.7656,378.0625 282.8594,377.4531 Q283.9531,376.8281 285.1875,376.8281 Q285.9219,376.8281 286.5625,377 Q287.2188,377.1563 287.7656,377.5156 Z " fill="#000000"/><text fill="#000000" font-family="sans-serif" font-size="12" lengthAdjust="spacing" textLength="68" x="299" y="386.5508">ESSA_Stack</text><line style="stroke:#A80036;stroke-width:1.5;" x1="271" x2="369" y1="397.6406" y2="397.6406"/><line style="stroke:#A80036;stroke-width:1.5;" x1="271" x2="369" y1="405.6406" y2="405.6406"/><!--MD5=[64300d69fc5aad341a8fc7098e3291f1]
link LEDClientApp to LEDProtocolClient--><path codeLine="30" d="M280.41,105.6506 C269.85,119.9006 262.68,136.8206 268,153.6406 C270.76,162.3606 274.95,170.9306 279.78,178.9906 " fill="none" id="LEDClientApp-to-LEDProtocolClient" style="stroke:#A80036;stroke-width:1.0;stroke-dasharray:7.0,7.0;"/><polygon fill="#A80036" points="282.53,183.4106,281.1905,173.6533,279.8967,179.1602,274.3898,177.8665,282.53,183.4106" style="stroke:#A80036;stroke-width:1.0;"/><text fill="#000000" font-family="sans-serif" font-size="13" lengthAdjust="spacing" textLength="57" x="269" y="150.1357">«request»</text><!--MD5=[b340173c06c54b67b3c73aa713c5db3f]
link LEDProtocolClient to LEDClientApp--><path codeLine="33" d="M328.93,183.2506 C331,168.1706 332.27,151.1906 331,135.6406 C330.34,127.5606 329.24,119.0006 327.99,110.7806 " fill="none" id="LEDProtocolClient-to-LEDClientApp" style="stroke:#A80036;stroke-width:1.0;"/><polygon fill="#A80036" points="327.19,105.7206,324.6525,115.237,327.9749,110.6586,332.5533,113.9811,327.19,105.7206" style="stroke:#A80036;stroke-width:1.0;"/><text fill="#000000" font-family="sans-serif" font-size="13" lengthAdjust="spacing" textLength="119" x="333" y="150.1357">«response callback»</text><!--MD5=[874ff243d883c4bb00d417b64c40034a]
link LEDServerApp to LEDProtocolServer--><path codeLine="31" d="M773.99,351.5406 C786.8,342.9906 799.11,333.0006 809,321.6406 C819.64,309.4106 827.71,293.8606 833.67,279.0306 " fill="none" id="LEDServerApp-to-LEDProtocolServer" style="stroke:#A80036;stroke-width:1.0;stroke-dasharray:7.0,7.0;"/><polygon fill="#A80036" points="835.61,274.0306,828.6159,280.9647,833.795,278.6896,836.0702,283.8687,835.61,274.0306" style="stroke:#A80036;stroke-width:1.0;"/><text fill="#000000" font-family="sans-serif" font-size="13" lengthAdjust="spacing" textLength="67" x="822" y="318.1357">«response»</text><!--MD5=[7e753d337d614b714d507dd227a6bee1]
link LEDProtocolServer to LEDServerApp--><path codeLine="34" d="M718.2,273.8706 C707.15,282.1806 697.4,292.0106 690,303.6406 C682.07,316.1006 681.39,331.7606 683.5,346.2306 " fill="none" id="LEDProtocolServer-to-LEDServerApp" style="stroke:#A80036;stroke-width:1.0;"/><polygon fill="#A80036" points="684.4,351.5006,686.8257,341.9551,683.5572,346.5722,678.9401,343.3037,684.4,351.5006" style="stroke:#A80036;stroke-width:1.0;"/><text fill="#000000" font-family="sans-serif" font-size="13" lengthAdjust="spacing" textLength="109" x="691" y="318.1357">«request callback»</text><!--MD5=[1eed8ef0e39e32129dab7bc784fc182d]
link LEDProtocolServer to ProtocolServerCommon--><path codeLine="32" d="M971.92,273.7206 C1046.1,300.1106 1138.68,333.0406 1205.7,356.8706 " fill="none" id="LEDProtocolServer-to-ProtocolServerCommon" style="stroke:#A80036;stroke-width:1.0;stroke-dasharray:7.0,7.0;"/><polygon fill="#A80036" points="1210.48,358.5706,1203.334,351.7931,1205.7674,356.8998,1200.6607,359.3332,1210.48,358.5706" style="stroke:#A80036;stroke-width:1.0;"/><!--MD5=[53e2c8ed21093a19d4352e45e9c86057]
link LEDProtocolServer to ESSA_Stack--><path codeLine="35" d="M639.66,273.7006 C559.6,293.5206 468.22,319.7106 388,351.6406 C379.78,354.9106 371.29,358.9506 363.22,363.1306 " fill="none" id="LEDProtocolServer-to-ESSA_Stack" style="stroke:#A80036;stroke-width:1.0;stroke-dasharray:7.0,7.0;"/><polygon fill="#A80036" points="358.78,365.4706,368.6075,364.8225,363.2055,363.1437,364.8844,357.7417,358.78,365.4706" style="stroke:#A80036;stroke-width:1.0;"/><!--MD5=[bb3ed10771e6e4ff5706f5a24273be92]
link LEDProtocolClient to ESSA_Stack--><path codeLine="36" d="M320,273.9306 C320,301.4406 320,335.9906 320,359.9506 " fill="none" id="LEDProtocolClient-to-ESSA_Stack" style="stroke:#A80036;stroke-width:1.0;stroke-dasharray:7.0,7.0;"/><polygon fill="#A80036" points="320,365.2006,324,356.2006,320,360.2006,316,356.2006,320,365.2006" style="stroke:#A80036;stroke-width:1.0;"/><!--MD5=[290d38451e990ae62472c5b499d4aad2]
@startuml

title Function Protocol Layer class diagram

class LEDClientApp {
    # LED_setLedStateResponseHandlerImpl(RespContext_t *pRespCtx, LEDsetLedStateResponseData_t *pResponseData) : void
    + LEDClientAppInit(void): void
}

class LEDServerApp {
    # LED_setLedStateRequestHandlerImpl(ReqContext_t *pReqCtx, LEDsetLedStateRequestData_t *pRequestData) : void
    + LEDServerAppInit(void) : void
}

class LEDProtocolClient {
    + LED_registerClientApi(LED_ClientApi_t *pCliApiHandlers) : void
    + LED_setLedStateReq(ReqContext_t *ctx, uint8_t u8ledId, LedState_t newState) : ESSA_eStack_codes_t
    + LED_getClientProtocolDescriptor(void) : ESSA_pStack_FunctionProtocolInfo_t
}

class LEDProtocolServer {
    + LED_registerServerApi(LED_ServerApi_t *pSrvApiHandlers) : void
    + LED_setLedStateResp(RespContext_t *ctx, ErrorStatus_t status) : ESSA_eStack_codes_t
    + LED_getServerProtocolDescriptor(void) : ESSA_pStack_FunctionProtocolInfo_t
}

class ProtocolServerCommon {
    + ProtocolSendErrorResp(ESSATMAC_Context *pMACContext, funcIdType_t funcId) : ESSA_eStack_codes_t
}

LEDClientApp ..> LEDProtocolClient: <<request>>
LEDServerApp ..> LEDProtocolServer: <<response>>
LEDProtocolServer ..> ProtocolServerCommon
LEDProtocolClient - -> LEDClientApp: <<response callback>>
LEDProtocolServer - -> LEDServerApp: <<request callback>>
LEDProtocolServer ..> ESSA_Stack
LEDProtocolClient ..> ESSA_Stack

@enduml

PlantUML version 1.2021.12(Tue Oct 05 19:01:58 EEST 2021)
(GPL source distribution)
Java Runtime: Java(TM) SE Runtime Environment
JVM: Java HotSpot(TM) 64-Bit Server VM
Default Encoding: Cp1252
Language: en
Country: GB
--></g></svg>