<?xml version="1.0" encoding="UTF-8" standalone="no"?><svg xmlns="http://www.w3.org/2000/svg" xmlns:xlink="http://www.w3.org/1999/xlink" contentScriptType="application/ecmascript" contentStyleType="text/css" height="446px" preserveAspectRatio="none" style="width:850px;height:446px;background:#FFFFFF;" version="1.1" viewBox="0 0 850 446" width="850px" zoomAndPan="magnify"><defs><filter height="300%" id="fnretbmnfs5si" width="300%" x="-1" y="-1"><feGaussianBlur result="blurOut" stdDeviation="2.0"/><feColorMatrix in="blurOut" result="blurOut2" type="matrix" values="0 0 0 0 0 0 0 0 0 0 0 0 0 0 0 0 0 0 .4 0"/><feOffset dx="4.0" dy="4.0" in="blurOut2" result="blurOut3"/><feBlend in="SourceGraphic" in2="blurOut3" mode="normal"/></filter></defs><g><!--MD5=[1054250acb4604969869931ff984168c]
entity SerDesHelpers.py--><rect fill="#FEFECE" filter="url(#fnretbmnfs5si)" height="47.6094" style="stroke:#A80036;stroke-width:1.5;" width="154" x="7" y="133"/><rect fill="#FEFECE" height="10" style="stroke:#A80036;stroke-width:1.5;" width="15" x="141" y="138"/><rect fill="#FEFECE" height="2" style="stroke:#A80036;stroke-width:1.5;" width="4" x="139" y="140"/><rect fill="#FEFECE" height="2" style="stroke:#A80036;stroke-width:1.5;" width="4" x="139" y="144"/><text fill="#000000" font-family="sans-serif" font-size="14" lengthAdjust="spacing" textLength="114" x="22" y="167.5332">SerDesHelpers.py</text><!--MD5=[beb5ad5244d3d849df9473931f7c2e5e]
entity GUI--><rect fill="#FEFECE" filter="url(#fnretbmnfs5si)" height="47.6094" style="stroke:#A80036;stroke-width:1.5;" width="63" x="229.5" y="259"/><rect fill="#FEFECE" height="10" style="stroke:#A80036;stroke-width:1.5;" width="15" x="272.5" y="264"/><rect fill="#FEFECE" height="2" style="stroke:#A80036;stroke-width:1.5;" width="4" x="270.5" y="266"/><rect fill="#FEFECE" height="2" style="stroke:#A80036;stroke-width:1.5;" width="4" x="270.5" y="270"/><text fill="#000000" font-family="sans-serif" font-size="14" lengthAdjust="spacing" textLength="23" x="244.5" y="293.5332">GUI</text><!--MD5=[45b07a8f5c8c6c897f39e07730bb255b]
entity GuiHelpers.py--><rect fill="#FEFECE" filter="url(#fnretbmnfs5si)" height="47.6094" style="stroke:#A80036;stroke-width:1.5;" width="129" x="196.5" y="133"/><rect fill="#FEFECE" height="10" style="stroke:#A80036;stroke-width:1.5;" width="15" x="305.5" y="138"/><rect fill="#FEFECE" height="2" style="stroke:#A80036;stroke-width:1.5;" width="4" x="303.5" y="140"/><rect fill="#FEFECE" height="2" style="stroke:#A80036;stroke-width:1.5;" width="4" x="303.5" y="144"/><text fill="#000000" font-family="sans-serif" font-size="14" lengthAdjust="spacing" textLength="89" x="211.5" y="167.5332">GuiHelpers.py</text><!--MD5=[687f122855f981adde29e80e0f4e17d8]
entity ProtocolNameClientAppGui.yaml--><rect fill="#FEFECE" filter="url(#fnretbmnfs5si)" height="47.6094" style="stroke:#A80036;stroke-width:1.5;" width="244" x="139" y="385"/><rect fill="#FEFECE" height="10" style="stroke:#A80036;stroke-width:1.5;" width="15" x="363" y="390"/><rect fill="#FEFECE" height="2" style="stroke:#A80036;stroke-width:1.5;" width="4" x="361" y="392"/><rect fill="#FEFECE" height="2" style="stroke:#A80036;stroke-width:1.5;" width="4" x="361" y="396"/><text fill="#000000" font-family="sans-serif" font-size="14" lengthAdjust="spacing" textLength="204" x="154" y="419.5332">ProtocolNameClientAppGui.yaml</text><!--MD5=[14718aea930144730dff442954d9a50d]
entity ProtocolNameClientApp.py--><rect fill="#FEFECE" filter="url(#fnretbmnfs5si)" height="47.6094" style="stroke:#A80036;stroke-width:1.5;" width="208" x="361" y="133"/><rect fill="#FEFECE" height="10" style="stroke:#A80036;stroke-width:1.5;" width="15" x="549" y="138"/><rect fill="#FEFECE" height="2" style="stroke:#A80036;stroke-width:1.5;" width="4" x="547" y="140"/><rect fill="#FEFECE" height="2" style="stroke:#A80036;stroke-width:1.5;" width="4" x="547" y="144"/><text fill="#000000" font-family="sans-serif" font-size="14" lengthAdjust="spacing" textLength="168" x="376" y="167.5332">ProtocolNameClientApp.py</text><!--MD5=[793c5164b3d5eaad3e46bc43afeef180]
entity User Python test script--><rect fill="#FEFECE" filter="url(#fnretbmnfs5si)" height="47.6094" style="stroke:#A80036;stroke-width:1.5;" width="182" x="501" y="7"/><rect fill="#FEFECE" height="10" style="stroke:#A80036;stroke-width:1.5;" width="15" x="663" y="12"/><rect fill="#FEFECE" height="2" style="stroke:#A80036;stroke-width:1.5;" width="4" x="661" y="14"/><rect fill="#FEFECE" height="2" style="stroke:#A80036;stroke-width:1.5;" width="4" x="661" y="18"/><text fill="#000000" font-family="sans-serif" font-size="14" lengthAdjust="spacing" textLength="142" x="516" y="41.5332">User Python test script</text><!--MD5=[96f291a7e34e520d92daa9b924538988]
entity ESPS I dongle interface library--><rect fill="#FEFECE" filter="url(#fnretbmnfs5si)" height="47.6094" style="stroke:#A80036;stroke-width:1.5;" width="232" x="604" y="133"/><rect fill="#FEFECE" height="10" style="stroke:#A80036;stroke-width:1.5;" width="15" x="816" y="138"/><rect fill="#FEFECE" height="2" style="stroke:#A80036;stroke-width:1.5;" width="4" x="814" y="140"/><rect fill="#FEFECE" height="2" style="stroke:#A80036;stroke-width:1.5;" width="4" x="814" y="144"/><text fill="#000000" font-family="sans-serif" font-size="14" lengthAdjust="spacing" textLength="192" x="619" y="167.5332">ESPS I dongle interface library</text><!--MD5=[a429621a592234a9da174d1c3413bba1]
reverse link SerDesHelpers.py to GUI--><path d="M121.12,184 C153.22,206.5 199.14,238.66 229.49,259.92 " fill="none" id="SerDesHelpers.py-backto-GUI" style="stroke:#A80036;stroke-width:1.0;stroke-dasharray:7.0,7.0;"/><polygon fill="#A80036" points="116.88,181.03,121.9573,189.4693,120.9755,183.8983,126.5465,182.9165,116.88,181.03" style="stroke:#A80036;stroke-width:1.0;"/><text fill="#000000" font-family="sans-serif" font-size="13" lengthAdjust="spacing" textLength="36" x="185" y="225.4951">import</text><!--MD5=[46b5bb1c6ec4965be89ac504ba398fa8]
reverse link GuiHelpers.py to GUI--><path d="M261,186.14 C261,208.04 261,238.09 261,258.67 " fill="none" id="GuiHelpers.py-backto-GUI" style="stroke:#A80036;stroke-width:1.0;stroke-dasharray:7.0,7.0;"/><polygon fill="#A80036" points="261,181.03,257,190.03,261,186.03,265,190.03,261,181.03" style="stroke:#A80036;stroke-width:1.0;"/><text fill="#000000" font-family="sans-serif" font-size="13" lengthAdjust="spacing" textLength="36" x="262" y="225.4951">import</text><!--MD5=[f3ed65283924d194ab2efa2a1e7a15c0]
link GUI to ProtocolNameClientAppGui.yaml--><path d="M261,307.03 C261,327.52 261,357.56 261,379.55 " fill="none" id="GUI-to-ProtocolNameClientAppGui.yaml" style="stroke:#A80036;stroke-width:1.0;stroke-dasharray:7.0,7.0;"/><polygon fill="#A80036" points="261,384.67,265,375.67,261,379.67,257,375.67,261,384.67" style="stroke:#A80036;stroke-width:1.0;"/><text fill="#000000" font-family="sans-serif" font-size="13" lengthAdjust="spacing" textLength="142" x="262" y="351.4951">load interface GUI model</text><!--MD5=[59f847b035ceae273e0d45e34e27ef2e]
reverse link ProtocolNameClientApp.py to GUI--><path d="M422.48,183.85 C383.78,207.37 327.54,241.56 292.67,262.75 " fill="none" id="ProtocolNameClientApp.py-backto-GUI" style="stroke:#A80036;stroke-width:1.0;stroke-dasharray:7.0,7.0;"/><polygon fill="#A80036" points="427.11,181.03,417.3375,182.2544,422.8288,183.613,421.4703,189.1043,427.11,181.03" style="stroke:#A80036;stroke-width:1.0;"/><text fill="#000000" font-family="sans-serif" font-size="13" lengthAdjust="spacing" textLength="77" x="376" y="225.4951">dynamic load</text><!--MD5=[71059ba3861e2034cc67178fc91b8649]
link User Python test script to ProtocolNameClientApp.py--><path d="M568.41,55.03 C546.98,75.95 515.36,106.83 492.73,128.93 " fill="none" id="User Python test script-to-ProtocolNameClientApp.py" style="stroke:#A80036;stroke-width:1.0;stroke-dasharray:7.0,7.0;"/><polygon fill="#A80036" points="488.89,132.67,498.1315,129.2648,492.4752,129.1848,492.5552,123.5285,488.89,132.67" style="stroke:#A80036;stroke-width:1.0;"/><text fill="#000000" font-family="sans-serif" font-size="13" lengthAdjust="spacing" textLength="36" x="537" y="99.4951">import</text><!--MD5=[d18276a3b269d6e8d4ffb620314e24a6]
link User Python test script to ESPS I dongle interface library--><path d="M615.78,55.03 C637.37,75.95 669.25,106.83 692.05,128.93 " fill="none" id="User Python test script-to-ESPS I dongle interface library" style="stroke:#A80036;stroke-width:1.0;stroke-dasharray:7.0,7.0;"/><polygon fill="#A80036" points="695.92,132.67,692.2179,123.5434,692.3208,129.1993,686.6649,129.3022,695.92,132.67" style="stroke:#A80036;stroke-width:1.0;"/><!--MD5=[46b349111bc34aa9ac51fa78f7d4cd92]
@startuml

[SerDesHelpers.py] <.. [GUI] : import
[GuiHelpers.py] <.. [GUI] : import
[GUI] ..> [ProtocolNameClientAppGui.yaml] : load interface GUI model
[ProtocolNameClientApp.py] <.. [GUI] : dynamic load
[User Python test script] ..> [ProtocolNameClientApp.py]: import
[User Python test script] ..> [ESPS I dongle interface library]

@enduml

PlantUML version 1.2021.9(Sun Jul 25 13:13:56 EEST 2021)
(GPL source distribution)
Java Runtime: OpenJDK Runtime Environment
JVM: OpenJDK 64-Bit Server VM
Default Encoding: Cp1252
Language: en
Country: US
--></g></svg>