<?xml version="1.0" encoding="UTF-8" standalone="no"?><svg xmlns="http://www.w3.org/2000/svg" xmlns:xlink="http://www.w3.org/1999/xlink" contentScriptType="application/ecmascript" contentStyleType="text/css" height="699px" preserveAspectRatio="none" style="width:1510px;height:699px;background:#FFFFFF;" version="1.1" viewBox="0 0 1510 699" width="1510px" zoomAndPan="magnify"><defs><filter height="300%" id="f1wphnsjvvcb10" width="300%" x="-1" y="-1"><feGaussianBlur result="blurOut" stdDeviation="2.0"/><feColorMatrix in="blurOut" result="blurOut2" type="matrix" values="0 0 0 0 0 0 0 0 0 0 0 0 0 0 0 0 0 0 .4 0"/><feOffset dx="4.0" dy="4.0" in="blurOut2" result="blurOut3"/><feBlend in="SourceGraphic" in2="blurOut3" mode="normal"/></filter></defs><g><text fill="#000000" font-family="sans-serif" font-size="18" font-weight="bold" lengthAdjust="spacing" textLength="504" x="496.5" y="18.6855">&lt;&lt;Protocol-over-MAC&gt;&gt; C code generation files overview</text><!--MD5=[1a5e51e5b857809ef836d4520e52a771]
cluster Diagram key--><polygon fill="#FFFFFF" filter="url(#f1wphnsjvvcb10)" points="16,65.9906,107,65.9906,114,89.6,412,89.6,412,293.9906,16,293.9906,16,65.9906" style="stroke:#000000;stroke-width:1.5;"/><line style="stroke:#000000;stroke-width:1.5;" x1="16" x2="114" y1="89.6" y2="89.6"/><text fill="#000000" font-family="sans-serif" font-size="14" font-weight="bold" lengthAdjust="spacing" textLength="85" x="20" y="82.5238">Diagram key</text><!--MD5=[130d719b9edcf39af80cdb750cbc63cb]
cluster Client app--><polygon fill="#FFFFFF" filter="url(#f1wphnsjvvcb10)" points="436,65.9906,513,65.9906,520,89.6,632,89.6,632,165.9906,436,165.9906,436,65.9906" style="stroke:#000000;stroke-width:1.5;"/><line style="stroke:#000000;stroke-width:1.5;" x1="436" x2="520" y1="89.6" y2="89.6"/><text fill="#000000" font-family="sans-serif" font-size="14" font-weight="bold" lengthAdjust="spacing" textLength="71" x="440" y="82.5238">Client app</text><!--MD5=[74b666a212fefaa47686e80d79458c4b]
cluster Server app--><polygon fill="#FFFFFF" filter="url(#f1wphnsjvvcb10)" points="1291,65.9906,1375,65.9906,1382,89.6,1493,89.6,1493,165.9906,1291,165.9906,1291,65.9906" style="stroke:#000000;stroke-width:1.5;"/><line style="stroke:#000000;stroke-width:1.5;" x1="1291" x2="1382" y1="89.6" y2="89.6"/><text fill="#000000" font-family="sans-serif" font-size="14" font-weight="bold" lengthAdjust="spacing" textLength="78" x="1295" y="82.5238">Server app</text><!--MD5=[d58d38b7018d5f5a19ecfd44ba6dad63]
cluster Client-side--><polygon fill="#FFFFFF" filter="url(#f1wphnsjvvcb10)" points="656,65.9906,738,65.9906,745,89.6,828,89.6,828,293.9906,656,293.9906,656,65.9906" style="stroke:#000000;stroke-width:1.5;"/><line style="stroke:#000000;stroke-width:1.5;" x1="656" x2="745" y1="89.6" y2="89.6"/><text fill="#000000" font-family="sans-serif" font-size="14" font-weight="bold" lengthAdjust="spacing" textLength="76" x="660" y="82.5238">Client-side</text><!--MD5=[0e71aed1556fcc4c0967b528f6432f4f]
cluster Server-side--><polygon fill="#FFFFFF" filter="url(#f1wphnsjvvcb10)" points="852,65.9906,941,65.9906,948,89.6,1267,89.6,1267,293.9906,852,293.9906,852,65.9906" style="stroke:#000000;stroke-width:1.5;"/><line style="stroke:#000000;stroke-width:1.5;" x1="852" x2="948" y1="89.6" y2="89.6"/><text fill="#000000" font-family="sans-serif" font-size="14" font-weight="bold" lengthAdjust="spacing" textLength="83" x="856" y="82.5238">Server-side</text><!--MD5=[6da8c80510db7f62f85ecc05c6591da8]
cluster Protocol-specific headers--><polygon fill="#FFFFFF" filter="url(#f1wphnsjvvcb10)" points="843,326.9906,1030,326.9906,1037,350.6,1040,350.6,1040,426.9906,843,426.9906,843,326.9906" style="stroke:#000000;stroke-width:1.5;"/><line style="stroke:#000000;stroke-width:1.5;" x1="843" x2="1037" y1="350.6" y2="350.6"/><text fill="#000000" font-family="sans-serif" font-size="14" font-weight="bold" lengthAdjust="spacing" textLength="181" x="847" y="343.5238">Protocol-specific headers</text><!--MD5=[b0a459c841970a5b7bc2494980b939a5]
cluster Common protocol headers--><polygon fill="#FFFFFF" filter="url(#f1wphnsjvvcb10)" points="935,459.9906,1127,459.9906,1134,483.6,1143,483.6,1143,559.9906,935,559.9906,935,459.9906" style="stroke:#000000;stroke-width:1.5;"/><line style="stroke:#000000;stroke-width:1.5;" x1="935" x2="1134" y1="483.6" y2="483.6"/><text fill="#000000" font-family="sans-serif" font-size="14" font-weight="bold" lengthAdjust="spacing" textLength="186" x="939" y="476.5238">Common protocol headers</text><!--MD5=[64de00fa7abafc57c7cf28e3c7b79823]
cluster ESSA stack headers--><polygon fill="#FFFFFF" filter="url(#f1wphnsjvvcb10)" points="957,592.9906,1102,592.9906,1109,616.6,1121,616.6,1121,692.9906,957,692.9906,957,592.9906" style="stroke:#000000;stroke-width:1.5;"/><line style="stroke:#000000;stroke-width:1.5;" x1="957" x2="1109" y1="616.6" y2="616.6"/><text fill="#000000" font-family="sans-serif" font-size="14" font-weight="bold" lengthAdjust="spacing" textLength="139" x="961" y="609.5238">ESSA stack headers</text><!--MD5=[8876487af95d5dcc3bde270ae94e6d7c]
entity file1.c--><rect fill="#FEFECE" filter="url(#f1wphnsjvvcb10)" height="47.6094" style="stroke:#A80036;stroke-width:1.5;" width="77" x="32.5" y="101.9906"/><rect fill="#FEFECE" height="10" style="stroke:#A80036;stroke-width:1.5;" width="15" x="89.5" y="106.9906"/><rect fill="#FEFECE" height="2" style="stroke:#A80036;stroke-width:1.5;" width="4" x="87.5" y="108.9906"/><rect fill="#FEFECE" height="2" style="stroke:#A80036;stroke-width:1.5;" width="4" x="87.5" y="112.9906"/><text fill="#000000" font-family="sans-serif" font-size="14" lengthAdjust="spacing" textLength="37" x="47.5" y="136.5238">file1.c</text><!--MD5=[8876f9b13ffc708b4212854450564801]
entity file2.h--><rect fill="#FEFECE" filter="url(#f1wphnsjvvcb10)" height="47.6094" style="stroke:#A80036;stroke-width:1.5;" width="78" x="32" y="229.9906"/><rect fill="#FEFECE" height="10" style="stroke:#A80036;stroke-width:1.5;" width="15" x="90" y="234.9906"/><rect fill="#FEFECE" height="2" style="stroke:#A80036;stroke-width:1.5;" width="4" x="88" y="236.9906"/><rect fill="#FEFECE" height="2" style="stroke:#A80036;stroke-width:1.5;" width="4" x="88" y="240.9906"/><text fill="#000000" font-family="sans-serif" font-size="14" lengthAdjust="spacing" textLength="38" x="47" y="264.5238">file2.h</text><!--MD5=[41de8800b765c827c2c7e9c40d78f7e9]
entity file3.c--><rect fill="#FEFECE" filter="url(#f1wphnsjvvcb10)" height="47.6094" style="stroke:#A80036;stroke-width:1.5;" width="77" x="144.5" y="101.9906"/><rect fill="#FEFECE" height="10" style="stroke:#A80036;stroke-width:1.5;" width="15" x="201.5" y="106.9906"/><rect fill="#FEFECE" height="2" style="stroke:#A80036;stroke-width:1.5;" width="4" x="199.5" y="108.9906"/><rect fill="#FEFECE" height="2" style="stroke:#A80036;stroke-width:1.5;" width="4" x="199.5" y="112.9906"/><text fill="#000000" font-family="sans-serif" font-size="14" lengthAdjust="spacing" textLength="37" x="159.5" y="136.5238">file3.c</text><!--MD5=[8c10631fe7d5a745fc898f09ba7b715c]
entity file4.c--><rect fill="#FEFECE" filter="url(#f1wphnsjvvcb10)" height="47.6094" style="stroke:#A80036;stroke-width:1.5;" width="77" x="318.5" y="101.9906"/><rect fill="#FEFECE" height="10" style="stroke:#A80036;stroke-width:1.5;" width="15" x="375.5" y="106.9906"/><rect fill="#FEFECE" height="2" style="stroke:#A80036;stroke-width:1.5;" width="4" x="373.5" y="108.9906"/><rect fill="#FEFECE" height="2" style="stroke:#A80036;stroke-width:1.5;" width="4" x="373.5" y="112.9906"/><text fill="#000000" font-family="sans-serif" font-size="14" lengthAdjust="spacing" textLength="37" x="333.5" y="136.5238">file4.c</text><!--MD5=[13493f5673eb30b83c1cabfc0462eee6]
entity ProtocolClientApp.c--><rect fill="#FEFECE" filter="url(#f1wphnsjvvcb10)" height="47.6094" style="stroke:#A80036;stroke-width:1.5;" width="164" x="452" y="101.9906"/><rect fill="#FEFECE" height="10" style="stroke:#A80036;stroke-width:1.5;" width="15" x="596" y="106.9906"/><rect fill="#FEFECE" height="2" style="stroke:#A80036;stroke-width:1.5;" width="4" x="594" y="108.9906"/><rect fill="#FEFECE" height="2" style="stroke:#A80036;stroke-width:1.5;" width="4" x="594" y="112.9906"/><text fill="#000000" font-family="sans-serif" font-size="14" lengthAdjust="spacing" textLength="124" x="467" y="136.5238">ProtocolClientApp.c</text><!--MD5=[6e845bb82ff020eb1e2199b070dd5fb8]
entity ProtocolServerApp.c--><rect fill="#FEFECE" filter="url(#f1wphnsjvvcb10)" height="47.6094" style="stroke:#A80036;stroke-width:1.5;" width="170" x="1307" y="101.9906"/><rect fill="#FEFECE" height="10" style="stroke:#A80036;stroke-width:1.5;" width="15" x="1457" y="106.9906"/><rect fill="#FEFECE" height="2" style="stroke:#A80036;stroke-width:1.5;" width="4" x="1455" y="108.9906"/><rect fill="#FEFECE" height="2" style="stroke:#A80036;stroke-width:1.5;" width="4" x="1455" y="112.9906"/><text fill="#000000" font-family="sans-serif" font-size="14" lengthAdjust="spacing" textLength="130" x="1322" y="136.5238">ProtocolServerApp.c</text><!--MD5=[b4dec1ecba583432488f141e127f2ded]
entity ProtocolClient.c--><rect fill="#FEFECE" filter="url(#f1wphnsjvvcb10)" height="47.6094" style="stroke:#A80036;stroke-width:1.5;" width="139" x="672.5" y="101.9906"/><rect fill="#FEFECE" height="10" style="stroke:#A80036;stroke-width:1.5;" width="15" x="791.5" y="106.9906"/><rect fill="#FEFECE" height="2" style="stroke:#A80036;stroke-width:1.5;" width="4" x="789.5" y="108.9906"/><rect fill="#FEFECE" height="2" style="stroke:#A80036;stroke-width:1.5;" width="4" x="789.5" y="112.9906"/><text fill="#000000" font-family="sans-serif" font-size="14" lengthAdjust="spacing" textLength="99" x="687.5" y="136.5238">ProtocolClient.c</text><!--MD5=[672704b4178c644f494c613b09003884]
entity ProtocolClient.h--><rect fill="#FEFECE" filter="url(#f1wphnsjvvcb10)" height="47.6094" style="stroke:#A80036;stroke-width:1.5;" width="140" x="672" y="229.9906"/><rect fill="#FEFECE" height="10" style="stroke:#A80036;stroke-width:1.5;" width="15" x="792" y="234.9906"/><rect fill="#FEFECE" height="2" style="stroke:#A80036;stroke-width:1.5;" width="4" x="790" y="236.9906"/><rect fill="#FEFECE" height="2" style="stroke:#A80036;stroke-width:1.5;" width="4" x="790" y="240.9906"/><text fill="#000000" font-family="sans-serif" font-size="14" lengthAdjust="spacing" textLength="100" x="687" y="264.5238">ProtocolClient.h</text><!--MD5=[d42ae5c19b240b0affba255b2866bc81]
entity ProtocolServer.c--><rect fill="#FEFECE" filter="url(#f1wphnsjvvcb10)" height="47.6094" style="stroke:#A80036;stroke-width:1.5;" width="145" x="869.5" y="101.9906"/><rect fill="#FEFECE" height="10" style="stroke:#A80036;stroke-width:1.5;" width="15" x="994.5" y="106.9906"/><rect fill="#FEFECE" height="2" style="stroke:#A80036;stroke-width:1.5;" width="4" x="992.5" y="108.9906"/><rect fill="#FEFECE" height="2" style="stroke:#A80036;stroke-width:1.5;" width="4" x="992.5" y="112.9906"/><text fill="#000000" font-family="sans-serif" font-size="14" lengthAdjust="spacing" textLength="105" x="884.5" y="136.5238">ProtocolServer.c</text><!--MD5=[0062e684d745ffd91c5740c0991ce8d5]
entity ProtocolServer.h--><rect fill="#FEFECE" filter="url(#f1wphnsjvvcb10)" height="47.6094" style="stroke:#A80036;stroke-width:1.5;" width="146" x="868" y="229.9906"/><rect fill="#FEFECE" height="10" style="stroke:#A80036;stroke-width:1.5;" width="15" x="994" y="234.9906"/><rect fill="#FEFECE" height="2" style="stroke:#A80036;stroke-width:1.5;" width="4" x="992" y="236.9906"/><rect fill="#FEFECE" height="2" style="stroke:#A80036;stroke-width:1.5;" width="4" x="992" y="240.9906"/><text fill="#000000" font-family="sans-serif" font-size="14" lengthAdjust="spacing" textLength="106" x="883" y="264.5238">ProtocolServer.h</text><!--MD5=[c80735812ad0acdb4712ccb5c2560ec9]
entity ProtocolServerCommon.h--><rect fill="#FEFECE" filter="url(#f1wphnsjvvcb10)" height="47.6094" style="stroke:#A80036;stroke-width:1.5;" width="202" x="1049" y="229.9906"/><rect fill="#FEFECE" height="10" style="stroke:#A80036;stroke-width:1.5;" width="15" x="1231" y="234.9906"/><rect fill="#FEFECE" height="2" style="stroke:#A80036;stroke-width:1.5;" width="4" x="1229" y="236.9906"/><rect fill="#FEFECE" height="2" style="stroke:#A80036;stroke-width:1.5;" width="4" x="1229" y="240.9906"/><text fill="#000000" font-family="sans-serif" font-size="14" lengthAdjust="spacing" textLength="162" x="1064" y="264.5238">ProtocolServerCommon.h</text><!--MD5=[2228ca449c61a614d1abf0f05a167f69]
entity ProtocolServerCommon.c--><rect fill="#FEFECE" filter="url(#f1wphnsjvvcb10)" height="47.6094" style="stroke:#A80036;stroke-width:1.5;" width="201" x="1049.5" y="101.9906"/><rect fill="#FEFECE" height="10" style="stroke:#A80036;stroke-width:1.5;" width="15" x="1230.5" y="106.9906"/><rect fill="#FEFECE" height="2" style="stroke:#A80036;stroke-width:1.5;" width="4" x="1228.5" y="108.9906"/><rect fill="#FEFECE" height="2" style="stroke:#A80036;stroke-width:1.5;" width="4" x="1228.5" y="112.9906"/><text fill="#000000" font-family="sans-serif" font-size="14" lengthAdjust="spacing" textLength="161" x="1064.5" y="136.5238">ProtocolServerCommon.c</text><!--MD5=[a2b6848f4506f3ac2155564ca17f8448]
entity ProtocolTypes.h--><rect fill="#FEFECE" filter="url(#f1wphnsjvvcb10)" height="47.6094" style="stroke:#A80036;stroke-width:1.5;" width="143" x="869.5" y="362.9906"/><rect fill="#FEFECE" height="10" style="stroke:#A80036;stroke-width:1.5;" width="15" x="992.5" y="367.9906"/><rect fill="#FEFECE" height="2" style="stroke:#A80036;stroke-width:1.5;" width="4" x="990.5" y="369.9906"/><rect fill="#FEFECE" height="2" style="stroke:#A80036;stroke-width:1.5;" width="4" x="990.5" y="373.9906"/><text fill="#000000" font-family="sans-serif" font-size="14" lengthAdjust="spacing" textLength="103" x="884.5" y="397.5238">ProtocolTypes.h</text><!--MD5=[3ba955014330fd0236bd37a9b466dc9c]
entity BaseProtocolTypes.h--><rect fill="#FEFECE" filter="url(#f1wphnsjvvcb10)" height="47.6094" style="stroke:#A80036;stroke-width:1.5;" width="175" x="951.5" y="495.9906"/><rect fill="#FEFECE" height="10" style="stroke:#A80036;stroke-width:1.5;" width="15" x="1106.5" y="500.9906"/><rect fill="#FEFECE" height="2" style="stroke:#A80036;stroke-width:1.5;" width="4" x="1104.5" y="502.9906"/><rect fill="#FEFECE" height="2" style="stroke:#A80036;stroke-width:1.5;" width="4" x="1104.5" y="506.9906"/><text fill="#000000" font-family="sans-serif" font-size="14" lengthAdjust="spacing" textLength="135" x="966.5" y="530.5238">BaseProtocolTypes.h</text><!--MD5=[ac420aae3e936eaab48896755fc00072]
entity ESSA_Stack.h--><rect fill="#FEFECE" filter="url(#f1wphnsjvvcb10)" height="47.6094" style="stroke:#A80036;stroke-width:1.5;" width="131" x="973.5" y="628.9906"/><rect fill="#FEFECE" height="10" style="stroke:#A80036;stroke-width:1.5;" width="15" x="1084.5" y="633.9906"/><rect fill="#FEFECE" height="2" style="stroke:#A80036;stroke-width:1.5;" width="4" x="1082.5" y="635.9906"/><rect fill="#FEFECE" height="2" style="stroke:#A80036;stroke-width:1.5;" width="4" x="1082.5" y="639.9906"/><text fill="#000000" font-family="sans-serif" font-size="14" lengthAdjust="spacing" textLength="91" x="988.5" y="663.5238">ESSA_Stack.h</text><!--MD5=[5dab9729a6658a266bf90e8beaf381d7]
link file1.c to file2.h--><path d="M71,150.1006 C71,171.0206 71,201.9006 71,224.3706 " fill="none" id="file1.c-to-file2.h" style="stroke:#A80036;stroke-width:1.0;stroke-dasharray:7.0,7.0;"/><polygon fill="#A80036" points="71,229.6006,75,220.6006,71,224.6006,67,220.6006,71,229.6006" style="stroke:#A80036;stroke-width:1.0;"/><text fill="#000000" font-family="sans-serif" font-size="13" lengthAdjust="spacing" textLength="62" x="72" y="196.4857">«includes»</text><!--MD5=[9e4d25124aeb713debfafdd8dc313c00]
link file3.c to file4.c--><path d="M221.62,125.9906 C248.76,125.9906 285.12,125.9906 313.32,125.9906 " fill="none" id="file3.c-to-file4.c" style="stroke:#A80036;stroke-width:1.0;"/><polygon fill="#A80036" points="318.49,125.9906,309.49,121.9906,313.49,125.9906,309.49,129.9906,318.49,125.9906" style="stroke:#A80036;stroke-width:1.0;"/><text fill="#000000" font-family="sans-serif" font-size="13" lengthAdjust="spacing" textLength="60" x="240" y="119.4857">«requires»</text><!--MD5=[2f98dfe5d4638ea9e219c39bbc8577fd]
link ProtocolClientApp.c to ProtocolClient.c--><path d="M616.06,125.9906 C633,125.9906 649.95,125.9906 666.89,125.9906 " fill="none" id="ProtocolClientApp.c-to-ProtocolClient.c" style="stroke:#A80036;stroke-width:1.0;"/><polygon fill="#A80036" points="672.14,125.9906,663.14,121.9906,667.14,125.9906,663.14,129.9906,672.14,125.9906" style="stroke:#A80036;stroke-width:1.0;"/><!--MD5=[a6c7b7182420153a960d60b09c450dcf]
link ProtocolClientApp.c to ProtocolClient.h--><path d="M572.15,150.1006 C608.1,171.8806 661.89,204.4606 699.27,227.1006 " fill="none" id="ProtocolClientApp.c-to-ProtocolClient.h" style="stroke:#A80036;stroke-width:1.0;stroke-dasharray:7.0,7.0;"/><polygon fill="#A80036" points="703.74,229.8106,698.1122,221.728,699.4627,227.2213,693.9694,228.5718,703.74,229.8106" style="stroke:#A80036;stroke-width:1.0;"/><!--MD5=[0290875e801bc292280ea332fe9f680a]
link ProtocolServerApp.c to ProtocolServer.c--><path d="M1361.63,101.8406 C1334.15,81.6506 1291.65,54.3706 1249.5,42.9906 C1206.59,31.4006 1091.56,28.6406 1049.5,42.9906 C1017.7,53.8406 987.99,78.3306 967.9,97.9106 " fill="none" id="ProtocolServerApp.c-to-ProtocolServer.c" style="stroke:#A80036;stroke-width:1.0;"/><polygon fill="#A80036" points="964.02,101.7506,973.2336,98.2709,967.5769,98.2366,967.6112,92.5798,964.02,101.7506" style="stroke:#A80036;stroke-width:1.0;"/><!--MD5=[e23b8124d728a3d5ca94b48c7f8c1c16]
link ProtocolServerApp.c to ProtocolServer.h--><path d="M1335.27,150.0406 C1314.05,158.2106 1289.61,167.0706 1267,173.9906 C1164.33,205.3906 1136.27,204.3906 1032,229.9906 C1027.91,231.0006 1023.71,232.0306 1019.47,233.0806 " fill="none" id="ProtocolServerApp.c-to-ProtocolServer.h" style="stroke:#A80036;stroke-width:1.0;stroke-dasharray:7.0,7.0;"/><polygon fill="#A80036" points="1014.48,234.3306,1024.1814,236.0284,1019.3307,233.1179,1022.2411,228.2672,1014.48,234.3306" style="stroke:#A80036;stroke-width:1.0;"/><!--MD5=[fa9d867a013eb6d4fb84aeb1ac04c232]
link ProtocolClient.c to ProtocolClient.h--><path d="M742,150.1006 C742,171.0206 742,201.9006 742,224.3706 " fill="none" id="ProtocolClient.c-to-ProtocolClient.h" style="stroke:#A80036;stroke-width:1.0;stroke-dasharray:7.0,7.0;"/><polygon fill="#A80036" points="742,229.6006,746,220.6006,742,224.6006,738,220.6006,742,229.6006" style="stroke:#A80036;stroke-width:1.0;"/><!--MD5=[17d0768eab0ee052e81da5cb682e94f2]
link ProtocolTypes.h to BaseProtocolTypes.h--><path d="M958.29,411.1106 C975.12,433.6106 1000.7,467.7906 1018.53,491.6306 " fill="none" id="ProtocolTypes.h-to-BaseProtocolTypes.h" style="stroke:#A80036;stroke-width:1.0;stroke-dasharray:7.0,7.0;"/><polygon fill="#A80036" points="1021.55,495.6606,1019.35,486.0606,1018.55,491.6606,1012.95,490.8606,1021.55,495.6606" style="stroke:#A80036;stroke-width:1.0;"/><!--MD5=[4ad593d4f127171f2379d2578abdbc89]
link ProtocolClient.h to ProtocolTypes.h--><path d="M777.12,278.1106 C811.97,301.0506 865.28,336.1406 901.56,360.0306 " fill="none" id="ProtocolClient.h-to-ProtocolTypes.h" style="stroke:#A80036;stroke-width:1.0;stroke-dasharray:7.0,7.0;"/><polygon fill="#A80036" points="905.9,362.8806,900.5776,354.5937,901.7222,360.1336,896.1824,361.2782,905.9,362.8806" style="stroke:#A80036;stroke-width:1.0;"/><!--MD5=[3f102edfc379a42598426e2f92074048]
link BaseProtocolTypes.h to ESSA_Stack.h--><path d="M1039,544.1106 C1039,566.2306 1039,599.6706 1039,623.4406 " fill="none" id="BaseProtocolTypes.h-to-ESSA_Stack.h" style="stroke:#A80036;stroke-width:1.0;stroke-dasharray:7.0,7.0;"/><polygon fill="#A80036" points="1039,628.6606,1043,619.6606,1039,623.6606,1035,619.6606,1039,628.6606" style="stroke:#A80036;stroke-width:1.0;"/><!--MD5=[c0232a9a8d970aeebc6f9a042b43d5ee]
link ProtocolServer.c to ProtocolServer.h--><path d="M941.82,150.1006 C941.65,171.0206 941.41,201.9006 941.23,224.3706 " fill="none" id="ProtocolServer.c-to-ProtocolServer.h" style="stroke:#A80036;stroke-width:1.0;stroke-dasharray:7.0,7.0;"/><polygon fill="#A80036" points="941.19,229.6006,945.2414,220.6236,941.2186,224.6007,937.2415,220.5779,941.19,229.6006" style="stroke:#A80036;stroke-width:1.0;"/><!--MD5=[de3d53b57fe6cc62ef7e41a60bdf3c87]
link ProtocolServer.c to ProtocolServerCommon.c--><path d="M1014.72,125.9906 C1024.54,125.9906 1034.37,125.9906 1044.19,125.9906 " fill="none" id="ProtocolServer.c-to-ProtocolServerCommon.c" style="stroke:#A80036;stroke-width:1.0;"/><polygon fill="#A80036" points="1049.33,125.9906,1040.33,121.9906,1044.33,125.9906,1040.33,129.9906,1049.33,125.9906" style="stroke:#A80036;stroke-width:1.0;"/><!--MD5=[3832a593867d50093e23c6933887b17c]
link ProtocolServer.h to ProtocolTypes.h--><path d="M941,278.1106 C941,300.2306 941,333.6706 941,357.4406 " fill="none" id="ProtocolServer.h-to-ProtocolTypes.h" style="stroke:#A80036;stroke-width:1.0;stroke-dasharray:7.0,7.0;"/><polygon fill="#A80036" points="941,362.6606,945,353.6606,941,357.6606,937,353.6606,941,362.6606" style="stroke:#A80036;stroke-width:1.0;"/><!--MD5=[d94de83ba49e5fe9ac3a2f82cfa32d62]
link ProtocolServer.c to ProtocolServerCommon.h--><path d="M980.15,150.1006 C1016.1,171.8806 1069.89,204.4606 1107.27,227.1006 " fill="none" id="ProtocolServer.c-to-ProtocolServerCommon.h" style="stroke:#A80036;stroke-width:1.0;stroke-dasharray:7.0,7.0;"/><polygon fill="#A80036" points="1111.74,229.8106,1106.1122,221.728,1107.4627,227.2213,1101.9694,228.5718,1111.74,229.8106" style="stroke:#A80036;stroke-width:1.0;"/><!--MD5=[cda858c0e7c74603d2a1b39a4075cd39]
link ProtocolServerCommon.h to BaseProtocolTypes.h--><path d="M1140.15,278.4206 C1119.74,326.9506 1072.92,438.3106 1050.88,490.7306 " fill="none" id="ProtocolServerCommon.h-to-BaseProtocolTypes.h" style="stroke:#A80036;stroke-width:1.0;stroke-dasharray:7.0,7.0;"/><polygon fill="#A80036" points="1048.83,495.6106,1055.9913,488.8493,1050.7581,490.9974,1048.61,485.7642,1048.83,495.6106" style="stroke:#A80036;stroke-width:1.0;"/><!--MD5=[694f46b56c97f7033b41b2ea63406d4b]
link ProtocolServerCommon.c to ProtocolServerCommon.h--><path d="M1150,150.1006 C1150,171.0206 1150,201.9006 1150,224.3706 " fill="none" id="ProtocolServerCommon.c-to-ProtocolServerCommon.h" style="stroke:#A80036;stroke-width:1.0;stroke-dasharray:7.0,7.0;"/><polygon fill="#A80036" points="1150,229.6006,1154,220.6006,1150,224.6006,1146,220.6006,1150,229.6006" style="stroke:#A80036;stroke-width:1.0;"/><!--MD5=[dcba64ea6e56da76837630ff8fb2292d]
@startuml

title <b><<Protocol-over-MAC>> C code generation files overview</b>

package "Diagram key" {
    [file1.c] ..> [file2.h]: <<includes>>
    [file3.c] -> [file4.c]: <<requires>>
}

package "Client app" {
    [ProtocolClientApp.c]
}

package "Server app" {
    [ProtocolServerApp.c]
}

package "Client-side" {
    [ProtocolClient.c]
    [ProtocolClient.h]
}

package "Server-side" {
    [ProtocolServer.c]
    [ProtocolServer.h]
    [ProtocolServerCommon.h]
    [ProtocolServerCommon.c]
}

package "Protocol-specific headers" {
    [ProtocolTypes.h]
}

package "Common protocol headers" {
    [BaseProtocolTypes.h]
}

package "ESSA stack headers" {
    [ESSA_Stack.h]
}

[ProtocolClientApp.c] -> [ProtocolClient.c]
[ProtocolClientApp.c] ..> [ProtocolClient.h]
[ProtocolServerApp.c] -> [ProtocolServer.c]
[ProtocolServerApp.c] ..> [ProtocolServer.h]

[ProtocolClient.c] ..> [ProtocolClient.h]
[ProtocolTypes.h] ..> [BaseProtocolTypes.h]
[ProtocolClient.h] ..> [ProtocolTypes.h]
[BaseProtocolTypes.h] ..> [ESSA_Stack.h]

[ProtocolServer.c] ..> [ProtocolServer.h]
[ProtocolServer.c] -> [ProtocolServerCommon.c]
[ProtocolServer.h] ..> [ProtocolTypes.h]
[ProtocolServer.c] ..> [ProtocolServerCommon.h]
[ProtocolServerCommon.h] ..> [BaseProtocolTypes.h]
[ProtocolServerCommon.c] ..> [ProtocolServerCommon.h]

@enduml

PlantUML version 1.2021.12(Tue Oct 05 19:01:58 EEST 2021)
(GPL source distribution)
Java Runtime: Java(TM) SE Runtime Environment
JVM: Java HotSpot(TM) 64-Bit Server VM
Default Encoding: Cp1252
Language: en
Country: GB
--></g></svg>