<?xml version="1.0" encoding="UTF-8" standalone="no"?><svg xmlns="http://www.w3.org/2000/svg" xmlns:xlink="http://www.w3.org/1999/xlink" contentScriptType="application/ecmascript" contentStyleType="text/css" height="344px" preserveAspectRatio="none" style="width:314px;height:344px;background:#FFFFFF;" version="1.1" viewBox="0 0 314 344" width="314px" zoomAndPan="magnify"><defs><filter height="300%" id="f7sjpj18ezzjq" width="300%" x="-1" y="-1"><feGaussianBlur result="blurOut" stdDeviation="2.0"/><feColorMatrix in="blurOut" result="blurOut2" type="matrix" values="0 0 0 0 0 0 0 0 0 0 0 0 0 0 0 0 0 0 .4 0"/><feOffset dx="4.0" dy="4.0" in="blurOut2" result="blurOut3"/><feBlend in="SourceGraphic" in2="blurOut3" mode="normal"/></filter></defs><g><!--MD5=[86dbde0db84e44aa4f4bf781114f0fb4]
cluster SDE--><polygon fill="#FFFFFF" filter="url(#f7sjpj18ezzjq)" points="79.5,119,113.5,119,120.5,142.6094,175.5,142.6094,175.5,219,79.5,219,79.5,119" style="stroke:#000000;stroke-width:1.5;"/><line style="stroke:#000000;stroke-width:1.5;" x1="79.5" x2="120.5" y1="142.6094" y2="142.6094"/><text fill="#000000" font-family="sans-serif" font-size="14" font-weight="bold" lengthAdjust="spacing" textLength="28" x="83.5" y="135.5332">SDE</text><!--MD5=[beb5ad5244d3d849df9473931f7c2e5e]
entity GUI--><rect fill="#FEFECE" filter="url(#f7sjpj18ezzjq)" height="47.6094" style="stroke:#A80036;stroke-width:1.5;" width="63" x="96" y="155"/><rect fill="#FEFECE" height="10" style="stroke:#A80036;stroke-width:1.5;" width="15" x="139" y="160"/><rect fill="#FEFECE" height="2" style="stroke:#A80036;stroke-width:1.5;" width="4" x="137" y="162"/><rect fill="#FEFECE" height="2" style="stroke:#A80036;stroke-width:1.5;" width="4" x="137" y="166"/><text fill="#000000" font-family="sans-serif" font-size="14" lengthAdjust="spacing" textLength="23" x="111" y="189.5332">GUI</text><!--MD5=[26947748c888928351ae47774fd86f80]
entity ProtocolNameClientAppGui.json--><rect fill="#FEFECE" filter="url(#f7sjpj18ezzjq)" height="47.6094" style="stroke:#A80036;stroke-width:1.5;" width="241" x="7" y="283"/><rect fill="#FEFECE" height="10" style="stroke:#A80036;stroke-width:1.5;" width="15" x="228" y="288"/><rect fill="#FEFECE" height="2" style="stroke:#A80036;stroke-width:1.5;" width="4" x="226" y="290"/><rect fill="#FEFECE" height="2" style="stroke:#A80036;stroke-width:1.5;" width="4" x="226" y="294"/><text fill="#000000" font-family="sans-serif" font-size="14" lengthAdjust="spacing" textLength="201" x="22" y="317.5332">ProtocolNameClientAppGui.json</text><!--MD5=[c226753f7134662a36b84cca8f5c2db6]
entity ProtocolNameClientApp.js--><rect fill="#FEFECE" filter="url(#f7sjpj18ezzjq)" height="47.6094" style="stroke:#A80036;stroke-width:1.5;" width="203" x="26" y="7"/><rect fill="#FEFECE" height="10" style="stroke:#A80036;stroke-width:1.5;" width="15" x="209" y="12"/><rect fill="#FEFECE" height="2" style="stroke:#A80036;stroke-width:1.5;" width="4" x="207" y="14"/><rect fill="#FEFECE" height="2" style="stroke:#A80036;stroke-width:1.5;" width="4" x="207" y="18"/><text fill="#000000" font-family="sans-serif" font-size="14" lengthAdjust="spacing" textLength="163" x="41" y="41.5332">ProtocolNameClientApp.js</text><!--MD5=[f252ad7b60a342fb0e0245585cff7df8]
link GUI to ProtocolNameClientAppGui.json--><path d="M127.5,203.11 C127.5,224.03 127.5,254.91 127.5,277.38 " fill="none" id="GUI-to-ProtocolNameClientAppGui.json" style="stroke:#A80036;stroke-width:1.0;stroke-dasharray:7.0,7.0;"/><polygon fill="#A80036" points="127.5,282.61,131.5,273.61,127.5,277.61,123.5,273.61,127.5,282.61" style="stroke:#A80036;stroke-width:1.0;"/><text fill="#000000" font-family="sans-serif" font-size="13" lengthAdjust="spacing" textLength="116" x="128.5" y="249.4951">load Interface model</text><!--MD5=[9d1a35997632700dbef71e3b0a635df7]
reverse link ProtocolNameClientApp.js to GUI--><path d="M127.5,60.46 C127.5,88.05 127.5,129.39 127.5,154.97 " fill="none" id="ProtocolNameClientApp.js-backto-GUI" style="stroke:#A80036;stroke-width:1.0;stroke-dasharray:7.0,7.0;"/><polygon fill="#A80036" points="127.5,55.13,123.5,64.13,127.5,60.13,131.5,64.13,127.5,55.13" style="stroke:#A80036;stroke-width:1.0;"/><text fill="#000000" font-family="sans-serif" font-size="13" lengthAdjust="spacing" textLength="178" x="128.5" y="99.4951">import protocol implementation</text><!--MD5=[2bfd48cc92866667d0a94638c5399481]
@startuml

package "SDE" {
    [GUI]
}

[GUI] ..> [ProtocolNameClientAppGui.json] : load Interface model
[ProtocolNameClientApp.js] <.. [GUI]: import protocol implementation

@enduml

PlantUML version 1.2021.9(Sun Jul 25 13:13:56 EEST 2021)
(GPL source distribution)
Java Runtime: OpenJDK Runtime Environment
JVM: OpenJDK 64-Bit Server VM
Default Encoding: Cp1252
Language: en
Country: US
--></g></svg>